<svg version="1.1" id="Layer_1" xmlns="http://www.w3.org/2000/svg" xmlns:xlink="http://www.w3.org/1999/xlink" x="0px" y="0px"
	 width="100%" viewBox="0 0 1280 1280" enable-background="new 0 0 1280 1280" xml:space="preserve">
<path fill="#379AD6" opacity="1.000000" stroke="none"
	d="
M847.019531,1180.057129
	C815.217468,1192.351196 782.899597,1201.570801 749.817505,1207.785034
	C732.198730,1211.094482 714.320068,1213.502563 696.447998,1214.862671
	C672.667114,1216.672485 648.778992,1217.789917 624.935669,1217.812866
	C608.812073,1217.828491 592.679688,1215.521118 576.562744,1214.119873
	C547.263611,1211.572876 518.404541,1206.215820 490.273285,1197.871948
	C466.440033,1190.802856 442.784637,1182.846680 419.663696,1173.728271
	C381.409241,1158.641357 345.529968,1138.761841 312.039734,1114.906494
	C295.131500,1102.862549 278.747284,1089.951172 263.077301,1076.337280
	C247.167358,1062.514648 231.493973,1048.185425 217.418304,1032.546753
	C200.664886,1013.933167 185.161911,994.109375 170.135284,974.047363
	C150.275909,947.533142 134.141586,918.669983 119.870712,888.784729
	C107.337128,862.537659 96.502342,835.612671 88.775238,807.550110
	C83.577362,788.672913 78.501396,769.725281 74.452423,750.580505
	C71.393059,736.114746 69.923317,721.303406 67.962151,706.617004
	C64.533745,680.942993 63.248756,655.109924 64.079636,629.254578
	C64.646782,611.605896 66.465263,593.992188 67.909966,576.378113
	C70.314980,547.055725 75.887634,518.231750 84.155457,490.088623
	C91.067314,466.561035 99.060127,443.273071 107.997498,420.436005
	C122.926155,382.289795 142.635193,346.520660 166.413330,313.171356
	C178.655899,296.000916 191.691803,279.312653 205.425095,263.312836
	C218.282120,248.333908 232.020050,234.012665 246.319122,220.398544
	C259.705536,207.653381 273.777863,195.469864 288.562256,184.392349
	C306.623474,170.859573 325.121704,157.679062 344.568420,146.288132
	C366.196838,133.619278 388.742371,122.337654 411.571167,111.952423
	C430.140106,103.505074 449.389435,96.177071 468.931000,90.341629
	C492.078674,83.429321 515.739380,78.049080 539.416565,73.162392
	C554.697205,70.008644 570.405273,68.920357 585.924927,66.930618
	C610.344910,63.799763 634.936951,62.960522 659.435425,64.186737
	C682.459106,65.339142 705.430176,68.138618 728.334045,70.950073
	C764.960510,75.445992 800.370239,85.206146 835.069031,97.517342
	C866.898987,108.810677 897.778870,122.384232 926.653870,139.960526
	C947.772461,152.815430 968.593384,166.263443 988.720703,180.606583
	C1002.396790,190.352524 1014.869934,201.849716 1027.456055,213.041595
	C1037.385986,221.871567 1046.804199,231.293976 1056.209106,240.693893
	C1074.843628,259.318695 1091.360718,279.752441 1107.025635,300.899078
	C1129.533081,331.282471 1148.531372,363.780487 1164.471191,398.002869
	C1180.589355,432.608398 1193.556885,468.441559 1201.881592,505.738190
	C1206.429443,526.113586 1209.996460,546.754822 1212.926270,567.429199
	C1215.169067,583.254822 1216.011963,599.303406 1216.931885,615.284241
	C1217.714111,628.871948 1218.383179,642.528442 1217.894775,656.111084
	C1217.302002,672.595520 1215.531372,689.042114 1214.109863,705.491211
	C1211.577881,734.791870 1206.203857,763.649475 1197.865601,791.780945
	C1190.802612,815.609436 1182.787354,839.234497 1173.720459,862.372314
	C1158.713745,900.666992 1138.579712,936.399353 1114.887329,969.967041
	C1102.920410,986.921814 1089.938232,1003.256226 1076.331421,1018.930420
	C1062.624756,1034.719604 1048.096436,1049.890381 1032.953003,1064.307983
	C1020.304016,1076.350464 1006.777100,1087.638550 992.683411,1097.955444
	C973.135742,1112.264893 953.284790,1126.351196 932.464233,1138.675415
	C912.604248,1150.431030 891.404175,1159.946899 870.647400,1170.150635
	C863.112854,1173.854492 855.156372,1176.700073 847.019531,1180.057129
M527.393005,327.695953
	C527.600647,327.499359 527.796814,327.291931 528.917053,326.961060
	C542.650269,326.961060 556.383545,326.961060 570.111084,326.961060
	C570.111084,315.585419 570.111084,304.991943 570.111084,294.296539
	C544.576233,294.296539 519.504456,294.296539 494.317993,294.296539
	C494.317993,325.155701 494.317993,355.714386 494.317993,386.452667
	C519.719421,386.452667 544.799072,386.452667 570.051392,386.452667
	C570.051392,376.337921 570.051392,366.519073 569.530151,356.162872
	C567.642944,355.775513 565.758240,355.067871 563.868042,355.052826
	C551.604187,354.955048 539.339233,355.007996 526.913757,354.083313
	C526.967041,345.382751 527.020386,336.682159 527.393005,327.695953
M679.346191,386.168091
	C679.481323,378.193024 679.438416,370.209229 679.828552,362.246643
	C680.016968,358.400848 678.684265,355.761230 676.008972,353.098541
	C667.452271,344.582031 659.156494,335.803406 650.474304,326.830719
	C660.072266,326.830719 669.728271,326.830719 679.443848,326.830719
	C679.443848,315.627136 679.443848,305.047699 679.443848,294.296722
	C653.913391,294.296722 628.691711,294.296722 603.051819,294.296722
	C603.051819,304.052521 602.882568,313.518524 603.179993,322.969788
	C603.247742,325.122833 604.434265,327.704651 605.950989,329.270447
	C613.944336,337.522400 622.217651,345.502869 630.364502,353.607086
	C631.189453,354.427765 631.818054,355.445831 633.121582,357.123840
	C622.517395,357.123840 612.940796,357.123840 603.360474,357.123840
	C603.360474,367.126282 603.360474,376.702545 603.360474,386.751770
	C605.625183,386.751770 607.587036,386.745697 609.548889,386.752716
	C632.366028,386.834351 655.183105,386.917969 678.249084,387.023193
	C678.497681,387.033783 678.740967,386.994415 679.346191,386.168091
M888.370850,430.151733
	C885.625305,429.767822 882.879822,429.048828 880.134155,429.047913
	C720.645142,428.994202 561.156128,428.999908 401.667084,429.000977
	C400.167267,429.000977 398.590881,428.728851 397.188690,429.102844
	C395.725281,429.493195 394.429626,430.512543 393.245117,432.031952
	C393.475189,433.507324 393.785278,434.975220 393.923431,436.459137
	C396.529053,464.442505 399.139832,492.425476 401.696625,520.413330
	C404.208252,547.907104 406.642700,575.407959 409.145020,602.902649
	C411.195099,625.428284 413.279419,647.950806 415.377197,670.472046
	C417.567291,693.984985 419.822540,717.491760 421.992218,741.006531
	C424.162140,764.523682 426.240417,788.049316 428.397644,811.567627
	C430.584869,835.413269 432.830597,859.253479 435.029633,883.098083
	C436.465363,898.666504 437.852783,914.239380 439.289764,929.807739
	C439.507385,932.165344 439.979889,934.020996 442.973419,934.812012
	C469.136353,941.725525 495.240265,948.862000 521.374878,955.883179
	C560.340027,966.351440 599.311768,976.795410 638.301575,987.171204
	C639.953003,987.610718 641.921814,987.662048 643.562378,987.221802
	C708.357117,969.836365 773.120605,952.334351 837.936340,935.027893
	C841.330750,934.121521 842.528381,932.626526 842.774841,929.427307
	C843.426331,920.970154 844.215942,912.523132 845.000000,904.076721
	C847.520569,876.920959 850.095276,849.770264 852.588989,822.612061
	C855.098145,795.285889 857.522705,767.952026 860.008667,740.623718
	C861.756409,721.410522 863.527527,702.199402 865.319641,682.990234
	C867.513062,659.477905 869.773621,635.971863 871.941711,612.457214
	C874.109985,588.940002 876.177917,565.413574 878.330444,541.894836
	C880.528259,517.882019 882.729248,493.869263 885.019409,469.865112
	C886.266113,456.798492 887.700806,443.749786 888.370850,430.151733
M778.437317,386.750549
	C781.532959,386.750549 784.628601,386.750549 788.002563,386.750549
	C788.002563,377.828674 787.853088,369.670410 788.073303,361.522156
	C788.166565,358.071167 787.050232,355.691681 784.590698,353.271484
	C775.894409,344.714325 767.459290,335.891754 758.552795,326.789246
	C768.362183,326.789246 777.910950,326.789246 787.598389,326.789246
	C787.598389,315.604370 787.598389,304.911499 787.598389,294.411133
	C762.133301,294.411133 737.074219,294.411133 711.749329,294.411133
	C711.749329,304.811066 711.643799,314.801849 711.859070,324.785645
	C711.892700,326.346283 713.086975,328.166687 714.257141,329.367615
	C718.785461,334.014984 723.512146,338.469574 728.182251,342.978119
	C732.552185,347.196899 736.943909,351.393005 741.326111,355.599091
	C741.077026,356.022278 740.827942,356.445496 740.578857,356.868683
	C731.039856,356.868683 721.500854,356.868683 711.878235,356.868683
	C711.878235,366.989532 711.878235,376.571899 711.878235,386.750549
	C733.890381,386.750549 755.673035,386.750549 778.437317,386.750549
z"/>
<path fill="#1E8ED1" opacity="1.000000" stroke="none"
	d="
M888.710815,430.422363
	C813.937012,430.677460 738.823364,430.654907 663.709656,430.648193
	C575.937866,430.640350 488.166107,430.644897 400.394348,430.654846
	C398.233673,430.655090 396.073029,430.781647 393.486481,431.053101
	C394.429626,430.512543 395.725281,429.493195 397.188690,429.102844
	C398.590881,428.728851 400.167267,429.000977 401.667084,429.000977
	C561.156128,428.999908 720.645142,428.994202 880.134155,429.047913
	C882.879822,429.048828 885.625305,429.767822 888.710815,430.422363
z"/>
<path fill="#1E8ED1" opacity="1.000000" stroke="none"
	d="
M569.790771,356.431519
	C556.641052,356.660492 543.230774,356.620758 529.152344,356.372711
	C528.026672,356.103668 527.568970,356.042969 527.111328,355.982269
	C527.052307,355.822479 526.993225,355.662689 527.004395,355.257202
	C539.339233,355.007996 551.604187,354.955048 563.868042,355.052826
	C565.758240,355.067871 567.642944,355.775513 569.790771,356.431519
z"/>
<path fill="#1E8ED1" opacity="1.000000" stroke="none"
	d="
M527.233398,327.838776
	C527.191406,327.665588 527.309143,327.349579 527.704224,327.053619
	C527.796814,327.291931 527.600647,327.499359 527.233398,327.838776
z"/>
<path fill="#1E8ED1" opacity="1.000000" stroke="none"
	d="
M678.124634,387.012115
	C678.000244,387.001038 678.482117,386.877838 678.730469,386.891479
	C678.740967,386.994415 678.497681,387.033783 678.124634,387.012115
z"/>
<path fill="#379AD6" opacity="1.000000" stroke="none"
	d="
M794.001160,533.000244
	C792.674377,552.078247 791.395020,571.159912 789.911560,590.225769
	C789.815063,591.466431 788.394958,593.160950 787.179749,593.677368
	C741.168457,613.227356 695.108826,632.663635 649.056152,652.116272
	C646.798767,653.069824 644.545105,654.032410 642.421448,655.770874
	C689.400513,655.770874 736.379578,655.770874 783.882629,655.770874
	C783.882629,658.136658 784.019592,660.054749 783.862610,661.948486
	C780.194702,706.206482 776.491089,750.461609 772.802979,794.717957
	C771.504517,810.299194 770.127014,825.875122 769.022949,841.470337
	C768.776978,844.944092 767.242859,846.267395 764.122375,847.127075
	C724.260315,858.109497 684.434509,869.223328 644.562988,880.170898
	C642.315552,880.787903 639.589905,880.806030 637.357178,880.163452
	C600.019714,869.416870 562.717651,858.546753 525.426270,847.640808
	C514.689819,844.500916 514.875061,844.397217 513.994507,833.143311
	C511.866730,805.950806 509.576263,778.771057 507.317383,751.170288
	C527.625549,751.170288 547.978149,751.170288 568.722900,751.170288
	C569.844849,765.260986 571.161987,779.306091 571.960327,793.380554
	C572.194458,797.507446 573.792725,799.007751 577.526306,799.994202
	C597.268616,805.210144 616.961487,810.615479 636.636292,816.082092
	C640.414917,817.132019 643.834534,817.274597 647.727722,816.049561
	C668.638733,809.469971 689.654541,803.223450 710.919128,796.775452
	C712.616516,770.382202 714.311157,744.031250 716.044128,717.084778
	C644.637573,717.084778 573.583130,717.084778 502.196564,717.084778
	C501.362793,704.295227 500.582123,692.052490 499.759674,679.812500
	C499.313934,673.179077 498.910126,666.539307 498.260468,659.924683
	C497.971954,656.986938 498.864319,655.704590 501.727600,654.506775
	C543.252686,637.134827 584.701050,619.579468 626.165833,602.063354
	C632.563782,599.360657 638.952087,596.635254 645.312927,592.740479
	C643.491211,592.740479 641.669373,592.729248 639.847717,592.742126
	C593.074768,593.073364 546.300964,593.330566 499.530060,593.847229
	C494.287781,593.905212 492.193573,592.943604 491.526367,587.083374
	C489.647034,570.575439 486.765961,554.181824 484.307190,537.739075
	C484.063232,536.107605 484.007477,534.447998 483.794800,532.000916
	C485.794189,532.000916 487.540039,532.001831 489.285919,532.000793
	C565.561157,531.955688 641.836365,531.911682 718.111572,531.864380
	C742.767639,531.849121 767.423645,531.825012 792.701172,532.074219
	C793.541687,532.569763 793.767883,532.788696 794.001160,533.000244
M647.198792,592.562927
	C647.198792,592.562927 647.486694,592.687195 647.486694,592.687195
	C647.486694,592.687195 647.416138,592.394714 647.198792,592.562927
z"/>
<path fill="#1E8ED1" opacity="1.000000" stroke="none"
	d="
M793.995605,532.710144
	C793.767883,532.788696 793.541687,532.569763 793.161133,532.171143
	C793.329773,532.139221 793.659973,532.279602 793.995605,532.710144
z"/>
<path fill="#379AD6" opacity="1.000000" stroke="none"
	d="
M527.170471,356.277344
	C527.568970,356.042969 528.026672,356.103668 528.685425,356.277466
	C528.334290,356.451141 527.781921,356.511780 527.170471,356.277344
z"/>
<path fill="#FFFFFF" opacity="1.000000" stroke="none"
	d="
M647.307495,592.478821
	C647.416138,592.394714 647.486694,592.687195 647.486694,592.687195
	C647.486694,592.687195 647.198792,592.562927 647.307495,592.478821
z"/>
</svg>
