<svg xmlns="http://www.w3.org/2000/svg" width="382" height="392" stroke="#000" stroke-linecap="round" stroke-linejoin="round" fill="#fff" fill-rule="evenodd">
    <ellipse cx="189.9764" cy="194.7008" rx="5cm" ry="5.125cm" fill="#222"/>
    <g stroke="none">
        <path fill="#222" d="M57.6929 67.1417h264.567v264.567H57.6929z"/>
        <g fill="#00d8ff">
            <circle cx="189.7687" cy="199.2612" r="22.1208"/>
            <path d="M66.5119 199.4248c0-28.0924 55.0652-50.7082 123.4641-50.7082s123.4652 22.6158 123.4652 50.7082-55.0653 50.7083-123.4652 50.7083-123.4641-22.6157-123.4641-50.7083zm11.0236 0c0-21.9856 50.1488-39.6846 112.4405-39.6846s112.4414 17.699 112.4414 39.6846-50.1488 39.6847-112.4414 39.6847-112.4405-17.6992-112.4405-39.6847z"/>
            <path d="M127.3597 90.9727c24.6723-14.2446 72.4626 22.6597 107.1527 82.7447s42.7555 119.9257 18.0832 134.1703-72.4625-22.6599-107.1531-82.7458-42.7552-119.9246-18.0828-134.1692zm5.591 9.684c19.3087-11.1479 60.287 23.93 91.8799 78.6504s41.4828 107.7489 22.1741 118.8968-60.2872-23.9309-91.8804-78.6519-41.4823-107.7475-22.1736-118.8954z"/>
            <path d="M252.5956 90.9726c24.6723 14.2446 16.6074 74.0843-18.0826 134.1693s-82.481 96.9902-107.1533 82.7457-16.6072-74.0843 18.0834-134.1702 82.4801-96.9894 107.1525-82.7448zm-5.591 9.684c19.3087 11.1479 9.4195 64.1751-22.1733 118.8955s-72.5719 89.7996-91.8806 78.6517-9.4188-64.1757 22.1743-118.8967 72.5709-89.7985 91.8796-78.6506z"/>
        </g>
    </g>
</svg>
