<svg version="1.1" id="Layer_1" xmlns="http://www.w3.org/2000/svg" xmlns:xlink="http://www.w3.org/1999/xlink" x="0px" y="0px"
	 width="100%" viewBox="0 0 640 640" enable-background="new 0 0 640 640" xml:space="preserve">
<path fill="#E44D26" opacity="1.000000" stroke="none"
	d="
M609.042908,334.153046
	C609.042908,334.153046 608.984131,334.592804 608.580078,334.970825
	C608.130737,339.612000 608.085388,343.875122 608.040100,348.138275
	C607.518921,366.113831 603.383057,383.451965 598.674438,400.675842
	C597.210083,406.032288 595.392090,411.292053 593.103882,416.912628
	C591.533081,418.742706 590.377014,420.164612 589.693665,421.785797
	C586.853088,428.524506 584.181946,435.334351 581.395813,442.096375
	C579.320251,447.134094 577.163513,452.138397 575.042969,457.157562
	C575.042969,457.157562 574.987671,457.606079 574.755005,457.976929
	C574.323914,458.578705 574.154480,458.829315 574.014160,459.099548
	C574.014160,459.099548 574.036743,459.022034 573.733521,459.118713
	C572.305725,461.510742 571.181152,463.806152 570.056641,466.101532
	C570.056641,466.101532 570.047607,466.032257 569.738037,466.126312
	C568.637939,467.847443 567.847351,469.474518 567.056702,471.101593
	C567.056702,471.101593 567.047546,471.032379 566.737915,471.126465
	C565.638916,472.848999 564.849487,474.477478 564.060059,476.105957
	C564.060059,476.105957 564.051880,476.036224 563.754333,476.132568
	C562.990906,477.187714 562.524963,478.146515 562.059082,479.105316
	C562.059082,479.105316 562.050598,479.035675 561.753174,479.132172
	C560.990173,480.187469 560.524475,481.146271 560.058838,482.105072
	C560.058838,482.105072 560.050354,482.035461 559.752930,482.132080
	C558.990234,483.187897 558.525024,484.147095 558.059875,485.106323
	C558.059875,485.106323 558.051636,485.036560 557.750977,485.136475
	C556.981140,486.211060 556.511963,487.185791 556.042725,488.160522
	C555.990479,488.470001 555.833740,488.711792 555.031250,489.053131
	C554.013000,490.182129 553.536072,491.143860 553.059082,492.105621
	C553.059082,492.105621 553.050964,492.035645 552.729980,492.103638
	C551.626099,493.483124 550.843079,494.794586 550.060059,496.106049
	C550.060059,496.106049 550.051575,496.036072 549.727539,496.105560
	C548.617065,497.505341 547.830627,498.835663 547.044189,500.165985
	C546.994202,500.474792 546.839111,500.716003 546.012207,501.027496
	C544.645081,502.498901 543.844666,503.832367 543.044312,505.165863
	C542.584167,505.718323 542.124023,506.270813 541.053345,506.994507
	C539.643433,508.499939 538.844177,509.834198 538.044922,511.168488
	C536.605835,512.698914 535.166748,514.229248 533.093750,515.952148
	C530.801270,518.208313 529.142700,520.271912 527.484131,522.335510
	C527.484131,522.335510 527.454590,522.431152 527.050781,522.401306
	C526.118164,523.283569 525.589355,524.195618 525.060547,525.107666
	C525.060547,525.107666 525.037842,525.037842 524.715576,525.059692
	C523.742798,525.839417 523.092346,526.597351 522.441956,527.355286
	C522.441956,527.355286 522.433167,527.455078 522.023682,527.387573
	C519.756592,529.266907 517.898987,531.213806 516.041321,533.160706
	C514.605896,534.694763 513.170410,536.228821 511.078705,537.910767
	C509.295532,539.093384 508.168671,540.127991 507.041748,541.162598
	C506.583374,541.716614 506.124969,542.270630 505.043335,542.941589
	C503.294189,544.094238 502.168274,545.129944 501.042328,546.165649
	C500.993439,546.474792 500.838867,546.716370 500.002075,546.973755
	C498.301788,548.077942 497.178040,549.098694 496.054321,550.119507
	C496.054321,550.119507 496.036041,550.051331 495.704163,550.058472
	C494.266205,551.083374 493.160095,552.101135 492.053986,553.118835
	C492.053986,553.118835 492.035706,553.050842 491.717926,553.064087
	C490.613251,553.770691 489.826355,554.463989 489.039429,555.157227
	C488.990265,555.467712 488.835205,555.710510 488.013916,555.975830
	C486.652130,556.750671 485.850647,557.435486 485.049194,558.120361
	C485.049194,558.120361 485.036469,558.051331 484.721375,558.062988
	C483.620514,558.756104 482.834778,559.437622 482.049011,560.119080
	C482.049011,560.119080 482.035675,560.050293 481.720581,560.062195
	C480.619965,560.755737 479.834473,561.437378 479.049011,562.119019
	C479.049011,562.119080 479.035675,562.050293 478.720520,562.062256
	C477.620209,562.756409 476.835052,563.438599 476.049866,564.120728
	C476.049866,564.120728 476.036255,564.051819 475.699829,564.057739
	C473.924652,565.080688 472.485931,566.097778 471.047211,567.114868
	C471.047211,567.114868 471.032074,567.046692 470.695740,567.054443
	C468.922180,568.079956 467.484955,569.097778 466.047729,570.115662
	C466.047729,570.115662 466.032379,570.047546 465.687836,570.055786
	C463.245209,571.415100 461.147156,572.766174 459.049103,574.117310
	C459.049103,574.117310 459.033600,574.049011 458.685120,574.057373
	C457.229980,574.379395 456.031189,574.515015 455.030273,575.033020
	C433.449554,586.200439 410.869934,594.647095 387.214874,600.250854
	C385.049072,600.763977 383.092957,602.162476 381.039490,603.149780
	C370.369080,604.777405 359.698669,606.405029 348.160858,608.001038
	C343.491730,607.732056 339.491547,604.946533 336.012146,608.847961
	C335.600647,608.905090 335.189178,608.962219 334.002380,609.019043
	C324.767059,609.026855 316.307037,609.034851 307.846985,609.042908
	C307.846985,609.042908 307.407196,608.984131 307.029175,608.580078
	C302.388000,608.130737 298.124878,608.085388 293.861725,608.040100
	C283.060486,606.613037 272.259247,605.185974 261.131348,603.141846
	C260.493256,602.159546 260.236877,601.547607 259.862640,601.464172
	C234.832809,595.879639 210.917160,587.228821 188.068161,575.586670
	C186.493576,574.784241 184.627472,574.553955 182.896942,574.057617
	C182.896942,574.057617 182.966400,574.049255 182.875275,573.741272
	C180.488937,572.307739 178.193710,571.182190 175.898483,570.056641
	C175.898483,570.056641 175.967743,570.047607 175.873657,569.738037
	C174.152588,568.637878 172.525574,567.847229 170.898575,567.056641
	C170.898575,567.056641 170.967773,567.047363 170.873627,566.737793
	C169.150970,565.638794 167.522491,564.849426 165.893982,564.060059
	C165.893982,564.060059 165.963730,564.051880 165.867371,563.754333
	C164.812302,562.990845 163.853592,562.524841 162.894897,562.058899
	C162.894897,562.058899 162.964462,562.050354 162.867889,561.752930
	C161.812500,560.990051 160.853699,560.524475 159.894897,560.058899
	C159.894897,560.058899 159.964462,560.050354 159.867859,559.752930
	C158.812119,558.990234 157.852997,558.524963 156.893860,558.059692
	C156.893860,558.059692 156.963547,558.051392 156.863617,557.750732
	C155.788956,556.980896 154.814209,556.511841 153.839478,556.042725
	C153.529968,555.990479 153.288162,555.833740 152.946854,555.031311
	C151.817871,554.013062 150.856094,553.536072 149.894333,553.059082
	C149.894333,553.059082 149.964264,553.050964 149.896301,552.729980
	C148.516861,551.626038 147.205383,550.843079 145.893890,550.060059
	C145.893890,550.060059 145.963913,550.051514 145.894455,549.727539
	C144.494659,548.617126 143.164337,547.830627 141.834000,547.044189
	C141.525192,546.994202 141.283997,546.839111 140.972473,546.012146
	C139.501068,544.645020 138.167557,543.844604 136.834045,543.044250
	C136.281601,542.584167 135.729156,542.124023 135.005539,541.053345
	C133.500076,539.643494 132.165787,538.844238 130.831512,538.044922
	C129.301147,536.605835 127.770775,535.166809 126.048187,533.094238
	C122.848526,529.988708 119.841080,527.516602 116.833633,525.044556
	C116.524422,524.995056 116.282860,524.840149 116.026176,524.000122
	C113.575363,520.960754 111.207314,518.501038 108.839272,516.041321
	C107.305283,514.606140 105.771294,513.170959 104.089249,511.079529
	C102.906601,509.296112 101.872002,508.168915 100.837402,507.041687
	C100.283386,506.583313 99.729355,506.124939 99.058380,505.043335
	C97.905762,503.294159 96.870087,502.168243 95.834412,501.042328
	C95.525223,500.993469 95.283684,500.838928 95.026253,500.002075
	C93.921959,498.301758 92.901207,497.178040 91.880463,496.054321
	C91.880463,496.054321 91.948616,496.036102 91.941505,495.704224
	C90.916656,494.266205 89.898911,493.160095 88.881157,492.053955
	C88.881149,492.053986 88.949158,492.035706 88.935852,491.717896
	C88.229301,490.613220 87.536057,489.826324 86.842804,489.039429
	C86.532341,488.990143 86.289459,488.835052 86.024078,488.013794
	C85.249237,486.652008 84.564453,485.850586 83.879669,485.049194
	C83.879669,485.049194 83.948685,485.036407 83.937012,484.721313
	C83.243881,483.620514 82.562408,482.834747 81.880936,482.049011
	C81.880943,482.049011 81.949768,482.035583 81.937744,481.720520
	C81.244026,480.619965 80.562332,479.834534 79.880630,479.049072
	C79.880630,479.049072 79.949486,479.035706 79.937561,478.720581
	C79.243530,477.620300 78.561409,476.835083 77.879295,476.049866
	C77.879303,476.049866 77.948212,476.036255 77.942322,475.699829
	C76.919106,473.924774 75.901787,472.486206 74.884460,471.047638
	C74.884460,471.047638 74.952637,471.032379 74.945206,470.696106
	C73.919975,468.922424 72.902184,467.485046 71.884384,466.047699
	C71.884384,466.047699 71.952515,466.032349 71.944260,465.687805
	C70.584862,463.245178 69.233719,461.147156 67.882576,459.049103
	C67.882576,459.049103 67.950836,459.033539 67.942528,458.685059
	C67.691513,457.383698 67.576279,456.374878 67.186798,455.486298
	C62.090725,443.859558 56.994404,432.232422 51.779499,420.658875
	C51.162800,419.290253 49.843002,418.238403 48.849121,417.039734
	C45.220089,403.681244 41.591053,390.322784 38.098976,376.212402
	C37.881702,371.873016 37.720486,368.251953 37.103958,364.710144
	C36.706974,362.429535 35.641205,360.265350 34.875183,358.048981
	C34.875183,358.048981 34.942375,358.029114 34.981972,357.659943
	C35.059856,354.496033 37.834862,351.413025 34.149479,349.010468
	C33.755928,344.024200 33.362377,339.037964 32.974445,333.137268
	C32.968113,324.116058 32.956161,316.009247 32.944206,307.902466
	C32.944206,307.902466 32.945702,307.972260 33.278736,307.827454
	C33.727806,303.075714 33.843838,298.468750 33.959873,293.861786
	C34.480618,276.558624 38.286797,259.826294 42.857525,243.240311
	C44.507603,237.252563 46.453575,231.346375 48.896339,225.086914
	C50.329762,223.560745 51.338127,222.438919 51.898827,221.125931
	C55.096970,213.636734 58.195927,206.105103 61.313438,198.581604
	C63.208710,194.007751 65.076683,189.422592 66.956924,184.842499
	C66.956917,184.842499 67.012131,184.393997 67.244873,184.023193
	C67.676056,183.421371 67.845444,183.170746 67.985779,182.900482
	C67.985779,182.900482 67.963234,182.977921 68.266479,182.881256
	C69.694283,180.489212 70.818832,178.193848 71.943375,175.898468
	C71.943382,175.898468 71.952415,175.967712 72.261963,175.873657
	C73.362137,174.152603 74.152756,172.525589 74.943382,170.898575
	C74.943382,170.898575 74.952660,170.967773 75.262268,170.873627
	C76.361206,169.150986 77.150543,167.522491 77.939880,165.894012
	C77.939880,165.894012 77.948105,165.963745 78.245651,165.867386
	C79.009109,164.812286 79.475014,163.853531 79.940918,162.894775
	C79.940910,162.894775 79.949371,162.964386 80.246796,162.867889
	C81.009827,161.812561 81.475441,160.853760 81.941055,159.894958
	C81.941063,159.894958 81.949615,159.964554 82.247055,159.867920
	C83.009712,158.812073 83.474915,157.852859 83.940125,156.893661
	C83.940132,156.893661 83.948303,156.963409 84.249001,156.863556
	C85.018845,155.789032 85.487991,154.814346 85.957138,153.839661
	C86.009438,153.530106 86.166183,153.288269 86.968689,152.946899
	C87.986977,151.817886 88.463966,150.856110 88.940956,149.894333
	C88.940948,149.894333 88.949051,149.964249 89.270042,149.896301
	C90.374001,148.516861 91.156967,147.205383 91.939934,145.893890
	C91.939934,145.893890 91.948479,145.963852 92.272476,145.894424
	C93.382957,144.494675 94.169434,143.164337 94.955910,141.834015
	C95.005859,141.525223 95.160934,141.284012 95.987854,140.972473
	C97.354980,139.501068 98.155403,138.167557 98.955826,136.834045
	C99.415909,136.281586 99.875999,135.729141 100.946655,135.005524
	C102.356522,133.500076 103.155830,132.165802 103.955147,130.831528
	C105.394188,129.301147 106.833229,127.770775 108.906967,126.047775
	C111.679550,123.181206 113.817444,120.507278 115.955338,117.833344
	C116.414429,117.280251 116.873528,116.727158 117.955978,116.058716
	C121.039108,113.575363 123.498886,111.207367 125.958664,108.839363
	C127.394066,107.305267 128.829468,105.771164 130.921005,104.088821
	C132.704117,102.906166 133.831100,101.871735 134.958084,100.837311
	C135.416534,100.283302 135.874985,99.729301 136.956665,99.058357
	C138.705795,97.905754 139.831696,96.870087 140.957581,95.834427
	C141.006485,95.525253 141.161072,95.283714 141.997925,95.026268
	C143.698273,93.921951 144.822037,92.901184 145.945786,91.880424
	C145.945786,91.880424 145.963852,91.948608 146.295776,91.941498
	C147.733780,90.916641 148.839874,89.898895 149.945984,88.881149
	C149.945984,88.881149 149.964279,88.949158 150.282074,88.935852
	C151.386780,88.229286 152.173706,87.536026 152.960617,86.842758
	C153.009857,86.532288 153.164948,86.289413 153.986237,86.024063
	C155.347961,85.249222 156.149368,84.564461 156.950760,83.879692
	C156.950760,83.879692 156.963531,83.948730 157.278641,83.937042
	C158.379517,83.243866 159.165283,82.562378 159.951065,81.880890
	C159.951065,81.880898 159.964508,81.949722 160.279572,81.937714
	C161.380096,81.244110 162.165573,80.562508 162.951050,79.880898
	C162.951050,79.880898 162.964508,79.949722 163.279602,79.937683
	C164.379852,79.243546 165.164978,78.561440 165.950119,77.879333
	C165.950119,77.879333 165.963699,77.948250 166.300140,77.942322
	C168.075226,76.919220 169.513870,75.902031 170.952530,74.884850
	C170.952530,74.884850 170.967819,74.953003 171.304108,74.945366
	C173.077698,73.919930 174.514999,72.902122 175.952301,71.884315
	C175.952301,71.884315 175.967667,71.952461 176.312195,71.944229
	C178.754776,70.584854 180.852814,69.233719 182.950851,67.882584
	C182.950851,67.882576 182.966431,67.950836 183.314880,67.942535
	C184.769958,67.620552 185.965210,67.480530 186.970169,66.967651
	C208.598572,55.929508 231.126816,47.344135 254.785172,41.748943
	C256.950989,41.236729 258.907043,39.837555 260.960510,38.850250
	C262.347290,38.554073 263.734100,38.257896 265.830200,38.098816
	C270.126984,37.881691 273.748016,37.720474 277.289825,37.103951
	C279.570435,36.706963 281.734650,35.641209 283.951019,34.875183
	C283.951019,34.875183 283.970886,34.942375 284.340057,34.981972
	C287.503967,35.059875 290.586945,37.834831 292.989532,34.149479
	C292.989532,34.149479 293.417053,34.015118 294.063843,34.023163
	C298.854645,34.467999 303.141327,36.899151 306.986084,33.152969
	C306.986084,33.152969 307.407593,33.015720 308.085999,32.998302
	C315.355103,32.996765 321.945862,32.998352 328.536377,33.043941
	C329.524231,33.050777 330.507965,33.331497 331.498138,33.370140
	C337.044159,33.586540 342.591522,33.767521 348.138428,33.960602
	C358.939392,35.387306 369.740326,36.814011 380.905975,38.896339
	C382.412659,40.091393 383.502197,40.848564 384.704376,41.138210
	C410.728333,47.408432 435.756897,56.254509 459.132965,69.493004
	C461.242004,70.687401 463.768799,71.144127 466.101562,71.943428
	C466.101562,71.943428 466.032318,71.952354 466.126343,72.261902
	C467.847290,73.362190 469.474182,74.152939 471.101074,74.943687
	C471.101074,74.943695 471.031891,74.953178 471.119812,75.257332
	C473.840057,77.021294 476.472321,78.481094 479.104584,79.940903
	C479.104584,79.940910 479.035034,79.949509 479.131866,80.246956
	C480.187500,81.009949 481.146301,81.475494 482.105103,81.941040
	C482.105103,81.941048 482.035522,81.949615 482.132141,82.247025
	C483.187744,83.009827 484.146698,83.475227 485.105682,83.940628
	C485.105682,83.940628 485.035767,83.948822 485.103577,84.269714
	C486.481415,85.374908 487.791473,86.159218 489.101501,86.943527
	C489.101501,86.943520 489.032501,86.953812 489.130768,87.250641
	C490.187897,88.011909 491.146759,88.476341 492.105621,88.940781
	C492.105621,88.940781 492.035706,88.949028 492.103699,89.270020
	C493.483154,90.373985 494.794617,91.156960 496.106049,91.939934
	C496.106049,91.939934 496.036102,91.948441 496.105530,92.272461
	C497.505310,93.382973 498.835663,94.169449 500.166016,94.955917
	C500.474792,95.005859 500.715973,95.160934 501.027527,95.987839
	C502.498932,97.354965 503.832428,98.155388 505.165924,98.955811
	C505.718445,99.415932 506.270996,99.876053 506.988953,100.946976
	C508.825348,102.690331 510.496338,103.822899 512.167297,104.955460
	C513.368713,106.065086 514.570068,107.174713 515.957703,108.911484
	C518.540894,111.532127 520.937805,113.525620 523.334717,115.519119
	C523.334717,115.519112 523.427551,115.548546 523.398743,115.951241
	C524.282593,116.882401 525.195251,117.410866 526.107910,117.939331
	C526.107910,117.939339 526.037781,117.962303 526.051331,118.297272
	C528.430115,121.074387 530.795410,123.516533 533.160645,125.958694
	C533.714722,126.418114 534.268860,126.877525 534.950439,127.955933
	C536.088196,129.363129 537.098450,130.151321 538.108765,130.939514
	C538.108765,130.939514 538.038696,130.961929 538.052979,131.296631
	C539.099060,132.740311 540.130798,133.849304 541.162598,134.958298
	C541.716675,135.416687 542.270691,135.875076 542.941650,136.956696
	C544.094177,138.705826 545.129883,139.831711 546.165588,140.957581
	C546.474792,141.006454 546.716370,141.161026 546.973694,141.997864
	C548.077942,143.698212 549.098755,144.821991 550.119568,145.945786
	C550.119568,145.945786 550.051331,145.963898 550.058472,146.295792
	C551.083313,147.733795 552.101074,148.839905 553.118835,149.945999
	C553.118835,149.945999 553.050842,149.964249 553.064087,150.282043
	C553.770691,151.386856 554.464050,152.173859 555.157349,152.960876
	C555.467773,153.010025 555.710571,153.165085 555.975586,153.986389
	C556.750244,155.348251 557.434937,156.149750 558.119629,156.951263
	C558.119629,156.951263 558.050659,156.964279 558.062439,157.279343
	C558.755798,158.379974 559.437378,159.165543 560.119019,159.951111
	C560.119019,159.951096 560.050232,159.964493 560.062195,160.279572
	C560.755920,161.380066 561.437622,162.165482 562.119385,162.950897
	C562.119385,162.950912 562.050537,162.964325 562.062378,163.279449
	C562.756409,164.379776 563.438538,165.164978 564.120728,165.950165
	C564.120728,165.950150 564.051819,165.963730 564.057739,166.300201
	C565.080933,168.075226 566.098267,169.513794 567.115601,170.952347
	C567.115601,170.952347 567.047424,170.967606 567.054810,171.303894
	C568.080017,173.077560 569.097839,174.514938 570.115662,175.952316
	C570.115662,175.952316 570.047546,175.967682 570.055786,176.312195
	C571.413757,178.755447 572.763611,180.854187 574.113403,182.952911
	C574.113403,182.952911 574.046265,182.971909 574.041260,183.329239
	C574.275269,184.802032 574.328857,185.999878 574.781921,187.020325
	C579.737000,198.180862 584.707214,209.335403 589.805786,220.430710
	C590.573059,222.100327 592.018921,223.458115 593.150818,224.960159
	C601.319763,246.928650 606.600220,269.529205 608.000671,293.841125
	C607.532043,298.854553 605.100708,303.141357 608.847107,306.986084
	C608.847107,306.986084 608.984131,307.407593 609.001953,308.046997
	C609.302979,310.777710 609.586243,312.868988 609.869507,314.960297
	C609.909302,315.723053 609.949158,316.485779 609.592896,317.785950
	C608.843384,320.005371 608.164551,321.694916 608.203552,323.367767
	C608.287354,326.967407 608.740723,330.558472 609.042908,334.153046
M422.175232,192.240265
	C422.175232,187.503326 422.175232,182.766388 422.175232,177.556931
	C414.362030,177.556931 407.301758,177.556931 399.808533,177.556931
	C399.808533,166.842300 399.808533,156.623459 399.808533,146.383911
	C394.450989,146.383911 389.554047,146.383911 384.037872,146.383911
	C384.037872,162.074600 384.037872,177.469833 384.381378,193.574966
	C385.201508,194.034119 386.017944,194.885284 386.842316,194.893021
	C397.483978,194.992889 408.127350,195.024796 418.768372,194.904266
	C419.864899,194.891861 420.949066,193.788712 422.175232,192.240265
M304.787476,162.205231
	C308.598022,162.205231 312.408569,162.205231 316.249329,162.205231
	C316.249329,156.457138 316.249329,151.403809 316.249329,146.490417
	C301.618805,146.490417 287.408508,146.490417 272.988495,146.490417
	C272.988495,150.829712 273.086639,154.814880 272.956024,158.792542
	C272.859436,161.734970 273.947021,163.180084 277.011169,162.935867
	C280.208069,162.681030 283.412231,162.516953 287.121948,162.280838
	C287.121948,172.568802 287.121948,182.775330 287.121948,193.297134
	C291.927399,193.297134 296.235199,193.415741 300.525543,193.194626
	C301.359497,193.151627 302.125214,191.785645 303.421692,190.360535
	C303.608704,180.940201 303.795685,171.519867 304.787476,162.205231
M237.076996,178.987045
	C239.404648,178.992355 241.743729,179.146515 244.057297,178.968658
	C247.667953,178.691055 249.205353,180.057617 249.079285,183.810364
	C248.998917,186.203186 249.720047,188.622910 250.261337,191.875061
	C255.379623,192.487152 260.497925,193.099243 265.712646,193.722855
	C265.712646,177.120087 265.712646,161.725952 265.712646,145.992508
	C260.590637,145.992508 255.784103,145.992508 250.272217,146.312332
	C249.865417,147.172867 249.196152,148.002808 249.091690,148.898605
	C247.793854,160.027985 247.815002,160.030457 236.011871,159.072800
	C236.011871,154.821396 236.011871,150.569977 236.011871,146.364380
	C230.307526,146.364380 225.383423,146.364380 220.381760,146.364380
	C220.381760,162.057877 220.381760,177.464645 220.381760,192.814972
	C225.704132,192.814972 230.743820,192.814972 236.169769,192.814972
	C236.169769,187.937424 236.169769,183.456009 237.076996,178.987045
M339.963531,174.960495
	C340.543121,174.924362 341.122681,174.888229 342.189850,175.258789
	C344.675385,179.010559 347.160950,182.762314 349.586548,186.423569
	C353.779144,182.965332 354.180695,176.619751 360.822632,174.662201
	C360.822632,181.339844 360.822632,187.190811 360.822632,194.000137
	C366.698608,193.281006 371.810760,192.655350 377.422119,191.360306
	C377.596405,190.723450 377.920776,190.087082 377.922821,189.449646
	C377.964630,176.452560 378.003632,163.455124 377.926453,150.458466
	C377.919159,149.229767 377.136292,148.005676 376.042023,146.353851
	C372.727631,146.260254 369.364960,146.487000 366.110260,145.996994
	C361.383911,145.285370 358.821625,147.453262 356.770599,151.353073
	C354.800385,155.099304 352.353882,158.595047 349.872620,162.594238
	C346.817993,157.594650 344.190918,153.190308 341.438782,148.865570
	C340.770111,147.814865 339.686310,146.242020 338.799225,146.245895
	C333.557556,146.268707 328.317627,146.685852 322.577942,147.639694
	C322.443970,161.521652 322.298950,175.403564 322.214874,189.285812
	C322.211365,189.865143 322.776733,190.447906 323.248199,191.702469
	C323.546082,192.198410 323.836121,193.120834 324.143097,193.126526
	C329.037170,193.217010 333.933380,193.190262 339.093170,193.190262
	C339.093170,186.623260 339.093170,180.805099 339.963531,174.960495
M426.802307,425.690002
	C426.858002,423.456543 426.913727,421.223114 426.876923,418.189880
	C426.971008,417.124023 427.065125,416.058197 427.810669,414.677277
	C427.863586,412.114746 427.916504,409.552185 427.876923,406.237030
	C427.971436,405.488800 428.065948,404.740570 428.811676,403.677032
	C428.864258,401.114563 428.916840,398.552124 428.880341,395.102936
	C429.306976,390.399414 429.733612,385.695862 430.802124,380.690063
	C430.857880,378.456604 430.913666,376.223114 430.877838,373.190155
	C430.972168,372.124237 431.066467,371.058289 431.802307,369.690002
	C431.858002,367.456543 431.913727,365.223114 431.876923,362.189880
	C431.971069,361.124023 432.065216,360.058167 432.810791,358.677216
	C432.863678,356.114685 432.916534,353.552185 432.876923,350.237030
	C432.971436,349.488800 433.065948,348.740570 433.811707,347.677032
	C433.864288,345.114563 433.916840,342.552124 433.880310,339.102936
	C434.314484,334.398743 434.748627,329.694550 435.819733,324.683105
	C435.870331,322.452209 435.920959,320.221283 435.878143,317.190582
	C435.973022,316.124115 436.067871,315.057617 436.803864,313.688660
	C436.859772,311.455902 436.915680,309.223145 436.874847,306.189209
	C436.970734,305.123199 437.066650,304.057190 437.813293,302.675751
	C437.866058,300.113953 437.918823,297.552185 437.880676,294.100769
	C438.648041,285.730621 439.415436,277.360504 440.819733,268.683105
	C440.870361,266.452209 440.920959,264.221283 440.878174,261.190582
	C440.973053,260.124115 441.067902,259.057617 441.803833,257.688660
	C441.859741,255.455872 441.915680,253.223099 441.877228,250.190292
	C441.971924,249.123932 442.066620,248.057556 442.812317,246.675995
	C442.865417,244.114105 442.918518,241.552200 442.880707,238.100479
	C443.491791,230.530914 444.102875,222.961349 444.723175,215.277679
	C362.150970,215.277679 279.766327,215.277679 197.170975,215.277679
	C198.645920,231.639404 200.144958,247.679855 201.523026,263.730682
	C202.760513,278.144196 203.865036,292.569153 204.575516,307.581757
	C204.996094,309.718231 205.416672,311.854675 206.003708,314.778717
	C206.011871,315.848816 206.020035,316.918945 205.583511,318.554718
	C205.989685,320.366699 206.395874,322.178680 206.970932,324.871155
	C211.082947,371.401520 215.231888,417.928711 219.224106,464.469360
	C219.490875,467.579193 221.132736,468.208282 223.511932,468.865936
	C253.095551,477.043060 282.644592,485.346497 312.263000,493.394897
	C316.259491,494.480896 320.915680,495.591278 324.709015,494.586304
	C356.136475,486.260620 387.427216,477.419525 418.778748,468.804932
	C421.367645,468.093536 422.504974,466.793945 422.716095,464.073303
	C423.417358,455.036743 424.341949,446.017487 425.818329,436.684570
	C425.868683,434.452942 425.919067,432.221283 425.877869,429.190155
	C425.972168,428.124237 426.066498,427.058289 426.802307,425.690002
M297.500000,213.991776
	C346.095947,213.991776 394.691895,213.991776 443.287842,213.991776
	C443.287292,213.745010 443.286743,213.498230 443.286224,213.251465
	C361.762329,213.251465 280.238434,213.251465 198.714554,213.251465
	C198.713699,213.499023 198.712860,213.746567 198.712006,213.994125
	C231.307999,213.994125 263.903992,213.994125 297.500000,213.991776
z"/>
<path fill="#F4542B" opacity="1.000000" stroke="none"
	d="
M465.936340,71.635910
	C463.768799,71.144127 461.242004,70.687401 459.132965,69.493004
	C435.756897,56.254509 410.728333,47.408432 384.704376,41.138210
	C383.502197,40.848564 382.412659,40.091393 381.154541,39.200577
	C393.380371,42.207882 406.140137,44.509270 417.962799,49.181770
	C434.269440,55.626415 449.868835,63.860683 465.936340,71.635910
z"/>
<path fill="#F4542B" opacity="1.000000" stroke="none"
	d="
M260.543854,38.905907
	C258.907043,39.837555 256.950989,41.236729 254.785172,41.748943
	C231.126816,47.344135 208.598572,55.929508 186.970169,66.967651
	C185.965210,67.480530 184.769958,67.620552 183.280121,67.938423
	C186.550674,65.821327 190.093750,63.474648 193.876724,61.616364
	C214.096008,51.684189 235.246002,44.321564 257.149658,39.107834
	C258.099915,38.881645 259.132812,39.002415 260.543854,38.905907
z"/>
<path fill="#F4542B" opacity="1.000000" stroke="none"
	d="
M183.062683,574.365845
	C184.627472,574.553955 186.493576,574.784241 188.068161,575.586670
	C210.917160,587.228821 234.832809,595.879639 259.862640,601.464172
	C260.236877,601.547607 260.493256,602.159546 260.882782,602.837524
	C248.316025,599.743103 235.386917,597.126770 223.104111,592.712158
	C210.159561,588.059753 197.829071,581.697083 185.243195,576.052856
	C184.512466,575.725098 183.897354,575.139648 183.062683,574.365845
z"/>
<path fill="#F4542B" opacity="1.000000" stroke="none"
	d="
M381.456116,603.094116
	C383.092957,602.162476 385.049072,600.763977 387.214874,600.250854
	C410.869934,594.647095 433.449554,586.200439 455.030273,575.033020
	C456.031189,574.515015 457.229980,574.379395 458.719849,574.061523
	C455.449554,576.178711 451.913269,578.541748 448.122955,580.381287
	C427.867554,590.211792 406.768250,597.718262 384.850281,602.892395
	C383.899292,603.116882 382.867126,602.997620 381.456116,603.094116
z"/>
<path fill="#F4542B" opacity="1.000000" stroke="none"
	d="
M48.906826,417.419922
	C49.843002,418.238403 51.162800,419.290253 51.779499,420.658875
	C56.994404,432.232422 62.090725,443.859558 67.186798,455.486298
	C67.576279,456.374878 67.691513,457.383698 67.938416,458.719849
	C65.363113,454.577789 62.387589,450.227905 60.288742,445.489716
	C56.251698,436.376038 52.711060,427.042450 48.906826,417.419922
z"/>
<path fill="#F4542B" opacity="1.000000" stroke="none"
	d="
M593.093140,224.579987
	C592.018921,223.458115 590.573059,222.100327 589.805786,220.430710
	C584.707214,209.335403 579.737000,198.180862 574.781921,187.020325
	C574.328857,185.999878 574.275269,184.802032 574.045776,183.294647
	C579.688110,194.669495 585.349304,206.422791 590.924866,218.216614
	C591.823914,220.118546 592.341492,222.200882 593.093140,224.579987
z"/>
<path fill="#F4542B" opacity="1.000000" stroke="none"
	d="
M66.652008,185.020325
	C65.076683,189.422592 63.208710,194.007751 61.313438,198.581604
	C58.195927,206.105103 55.096970,213.636734 51.898827,221.125931
	C51.338127,222.438919 50.329762,223.560745 49.188389,224.865738
	C54.681442,211.706467 60.514263,198.452301 66.652008,185.020325
z"/>
<path fill="#F4542B" opacity="1.000000" stroke="none"
	d="
M575.347900,456.979736
	C577.163513,452.138397 579.320251,447.134094 581.395813,442.096375
	C584.181946,435.334351 586.853088,428.524506 589.693665,421.785797
	C590.377014,420.164612 591.533081,418.742706 592.811584,417.134216
	C587.318481,430.293488 581.485657,443.547699 575.347900,456.979736
z"/>
<path fill="#F5542A" opacity="1.000000" stroke="none"
	d="
M347.857300,33.630520
	C342.591522,33.767521 337.044159,33.586540 331.498138,33.370140
	C330.507965,33.331497 329.524231,33.050777 328.536377,33.043941
	C321.945862,32.998352 315.355103,32.996765 308.305695,32.969002
	C309.061554,32.635571 310.285309,32.004604 311.489258,32.040344
	C323.520081,32.397499 335.547668,32.864449 347.857300,33.630520
z"/>
<path fill="#F5542A" opacity="1.000000" stroke="none"
	d="
M308.133484,609.371826
	C316.307037,609.034851 324.767059,609.026855 333.690186,609.030640
	C329.996399,609.362610 325.843719,609.854370 321.681549,609.956055
	C317.265747,610.063965 312.840912,609.801514 308.133484,609.371826
z"/>
<path fill="#F5542A" opacity="1.000000" stroke="none"
	d="
M32.612316,308.180298
	C32.956161,316.009247 32.968113,324.116058 32.970119,332.680298
	C32.638851,328.339386 32.197479,323.545013 32.036804,318.741272
	C31.922375,315.320099 32.185688,311.886322 32.612316,308.180298
z"/>
<path fill="#F4542B" opacity="1.000000" stroke="none"
	d="
M34.922596,358.485962
	C35.641205,360.265350 36.706974,362.429535 37.103958,364.710144
	C37.720486,368.251953 37.881702,371.873016 38.090866,375.794098
	C36.953873,370.392792 35.961941,364.657867 34.922596,358.485962
z"/>
<path fill="#F4542B" opacity="1.000000" stroke="none"
	d="
M283.514038,34.922600
	C281.734650,35.641209 279.570435,36.706963 277.289825,37.103951
	C273.748016,37.720474 270.126984,37.881691 266.205902,38.090858
	C271.607208,36.953873 277.342133,35.961941 283.514038,34.922600
z"/>
<path fill="#F5542A" opacity="1.000000" stroke="none"
	d="
M33.630322,294.142273
	C33.843838,298.468750 33.727806,303.075714 33.244682,307.819824
	C33.018650,303.445587 33.159710,298.934174 33.630322,294.142273
z"/>
<path fill="#F5542A" opacity="1.000000" stroke="none"
	d="
M306.528564,33.100334
	C303.141327,36.899151 298.854645,34.467999 294.286194,33.995552
	C297.931519,33.655830 302.001251,33.351765 306.528564,33.100334
z"/>
<path fill="#F4542B" opacity="1.000000" stroke="none"
	d="
M117.002213,525.338684
	C119.841080,527.516602 122.848526,529.988708 125.907440,532.810791
	C123.029541,530.651550 120.100174,528.142151 117.002213,525.338684
z"/>
<path fill="#F5542A" opacity="1.000000" stroke="none"
	d="
M608.899719,306.528564
	C605.100708,303.141357 607.532043,298.854553 608.004395,294.286072
	C608.344116,297.931427 608.648193,302.001221 608.899719,306.528564
z"/>
<path fill="#F5542A" opacity="1.000000" stroke="none"
	d="
M609.371338,333.867523
	C608.740723,330.558472 608.287354,326.967407 608.203552,323.367767
	C608.164551,321.694916 608.843384,320.005371 609.530518,318.164001
	C609.809387,323.197083 609.754578,328.389526 609.371338,333.867523
z"/>
<path fill="#F5542A" opacity="1.000000" stroke="none"
	d="
M294.140930,608.369019
	C298.124878,608.085388 302.388000,608.130737 306.818176,608.511597
	C302.796844,608.797424 298.608490,608.747681 294.140930,608.369019
z"/>
<path fill="#F5542A" opacity="1.000000" stroke="none"
	d="
M608.369019,347.859070
	C608.085388,343.875122 608.130737,339.612000 608.511597,335.181824
	C608.797363,339.203156 608.747620,343.391510 608.369019,347.859070
z"/>
<path fill="#F5542A" opacity="1.000000" stroke="none"
	d="
M336.466187,608.900879
	C339.491547,604.946533 343.491730,607.732056 347.715912,608.004761
	C344.398987,608.344666 340.659576,608.649231 336.466187,608.900879
z"/>
<path fill="#F4542B" opacity="1.000000" stroke="none"
	d="
M533.084473,125.617828
	C530.795410,123.516533 528.430115,121.074387 526.063049,118.262283
	C528.376892,120.353874 530.692566,122.815414 533.084473,125.617828
z"/>
<path fill="#F4542B" opacity="1.000000" stroke="none"
	d="
M115.661163,118.002029
	C113.817444,120.507278 111.679550,123.181206 109.190369,125.907028
	C111.015053,123.362846 113.191025,120.766785 115.661163,118.002029
z"/>
<path fill="#F4542B" opacity="1.000000" stroke="none"
	d="
M125.617683,108.915604
	C123.498886,111.207367 121.039108,113.575363 118.206299,115.949387
	C120.314407,113.634216 122.795555,111.313026 125.617683,108.915604
z"/>
<path fill="#F4542B" opacity="1.000000" stroke="none"
	d="
M108.915543,516.382263
	C111.207314,518.501038 113.575363,520.960754 115.949463,523.793579
	C113.634277,521.685486 111.313042,519.204346 108.915543,516.382263
z"/>
<path fill="#F4542B" opacity="1.000000" stroke="none"
	d="
M523.259277,115.212692
	C520.937805,113.525620 518.540894,111.532127 516.092590,109.188873
	C518.422058,110.861504 520.802917,112.883881 523.259277,115.212692
z"/>
<path fill="#F4542B" opacity="1.000000" stroke="none"
	d="
M478.941345,79.637802
	C476.472321,78.481094 473.840057,77.021294 471.127472,75.223267
	C473.624176,76.368263 476.201141,77.851494 478.941345,79.637802
z"/>
<path fill="#F4542B" opacity="1.000000" stroke="none"
	d="
M516.382019,533.084534
	C517.898987,531.213806 519.756592,529.266907 521.974731,527.397949
	C520.464417,529.320068 518.593567,531.164246 516.382019,533.084534
z"/>
<path fill="#F4542B" opacity="1.000000" stroke="none"
	d="
M527.789917,522.259583
	C529.142700,520.271912 530.801270,518.208313 532.810303,516.092896
	C531.472473,518.088684 529.784119,520.136169 527.789917,522.259583
z"/>
<path fill="#F4542B" opacity="1.000000" stroke="none"
	d="
M34.096504,349.446411
	C37.834862,351.413025 35.059856,354.496033 34.980064,357.694916
	C34.640217,355.360138 34.341873,352.621246 34.096504,349.446411
z"/>
<path fill="#F4542B" opacity="1.000000" stroke="none"
	d="
M292.553589,34.096504
	C290.586945,37.834831 287.503967,35.059875 284.305084,34.980064
	C286.639862,34.640213 289.378754,34.341869 292.553589,34.096504
z"/>
<path fill="#F4542B" opacity="1.000000" stroke="none"
	d="
M176.061584,570.361938
	C178.193710,571.182190 180.488937,572.307739 182.867966,573.775513
	C180.709396,572.967468 178.467041,571.817322 176.061584,570.361938
z"/>
<path fill="#F4542B" opacity="1.000000" stroke="none"
	d="
M459.399048,574.054382
	C461.147156,572.766174 463.245209,571.415100 465.722473,570.060181
	C463.984100,571.368103 461.866577,572.679749 459.399048,574.054382
z"/>
<path fill="#F4542B" opacity="1.000000" stroke="none"
	d="
M182.600891,67.945541
	C180.852814,69.233719 178.754776,70.584854 176.277557,71.939774
	C178.015900,70.631882 180.133423,69.320190 182.600891,67.945541
z"/>
<path fill="#F4542B" opacity="1.000000" stroke="none"
	d="
M67.945541,459.399048
	C69.233719,461.147156 70.584862,463.245178 71.939804,465.722412
	C70.631905,463.984100 69.320206,461.866547 67.945541,459.399048
z"/>
<path fill="#F4542B" opacity="1.000000" stroke="none"
	d="
M574.052002,182.602631
	C572.763611,180.854187 571.413757,178.755447 570.060181,176.277557
	C571.367798,178.016388 572.679199,180.134369 574.052002,182.602631
z"/>
<path fill="#F4542B" opacity="1.000000" stroke="none"
	d="
M71.638054,176.061584
	C70.818832,178.193848 69.694283,180.489212 68.228012,182.869156
	C69.035095,180.710709 70.183914,178.467697 71.638054,176.061584
z"/>
<path fill="#F4542B" opacity="1.000000" stroke="none"
	d="
M570.362000,465.938416
	C571.181152,463.806152 572.305725,461.510742 573.771973,459.130859
	C572.964966,461.289337 571.816162,463.532318 570.362000,465.938416
z"/>
<path fill="#F4542B" opacity="1.000000" stroke="none"
	d="
M511.999512,104.661835
	C510.496338,103.822899 508.825348,102.690331 507.098053,101.197472
	C508.638397,102.014183 510.235077,103.191200 511.999512,104.661835
z"/>
<path fill="#F4542B" opacity="1.000000" stroke="none"
	d="
M170.613113,74.945274
	C169.513870,75.902031 168.075226,76.919220 166.265244,77.938263
	C167.353851,76.961983 168.813766,75.983841 170.613113,74.945274
z"/>
<path fill="#F4542B" opacity="1.000000" stroke="none"
	d="
M166.054764,564.360168
	C167.522491,564.849426 169.150970,565.638794 170.866425,566.771912
	C169.374100,566.297180 167.794815,565.478760 166.054764,564.360168
z"/>
<path fill="#F4542B" opacity="1.000000" stroke="none"
	d="
M175.612976,71.945084
	C174.514999,72.902122 173.077698,73.919930 171.269501,74.940697
	C172.356949,73.964394 173.815292,72.985130 175.612976,71.945084
z"/>
<path fill="#F4542B" opacity="1.000000" stroke="none"
	d="
M71.945114,466.387085
	C72.902184,467.485046 73.919975,468.922424 74.940613,470.730713
	C73.964249,469.643250 72.985039,468.184845 71.945114,466.387085
z"/>
<path fill="#F4542B" opacity="1.000000" stroke="none"
	d="
M567.357666,470.942535
	C567.847351,469.474518 568.637939,467.847443 569.772217,466.133575
	C569.296814,467.625702 568.477783,469.204590 567.357666,470.942535
z"/>
<path fill="#F4542B" opacity="1.000000" stroke="none"
	d="
M466.387054,570.054871
	C467.484955,569.097778 468.922180,568.079956 470.730347,567.059082
	C469.642944,568.035400 468.184662,569.014709 466.387054,570.054871
z"/>
<path fill="#F4542B" opacity="1.000000" stroke="none"
	d="
M171.057526,567.357666
	C172.525574,567.847229 174.152588,568.637878 175.866425,569.772217
	C174.374313,569.296875 172.795380,568.477783 171.057526,567.357666
z"/>
<path fill="#F4542B" opacity="1.000000" stroke="none"
	d="
M74.945076,471.387024
	C75.901787,472.486206 76.919106,473.924774 77.938271,475.734680
	C76.961967,474.646149 75.983826,473.186310 74.945076,471.387024
z"/>
<path fill="#F4542B" opacity="1.000000" stroke="none"
	d="
M564.360168,475.945251
	C564.849487,474.477478 565.638916,472.848999 566.772095,471.133667
	C566.297302,472.626007 565.478760,474.205261 564.360168,475.945251
z"/>
<path fill="#F4542B" opacity="1.000000" stroke="none"
	d="
M471.386658,567.054504
	C472.485931,566.097778 473.924652,565.080688 475.734680,564.061707
	C474.646057,565.037964 473.186096,566.016052 471.386658,567.054504
z"/>
<path fill="#F4542B" opacity="1.000000" stroke="none"
	d="
M470.941772,74.642899
	C469.474182,74.152939 467.847290,73.362190 466.133606,72.227753
	C467.625397,72.703423 469.203918,73.522766 470.941772,74.642899
z"/>
<path fill="#F4542B" opacity="1.000000" stroke="none"
	d="
M570.054932,175.612946
	C569.097839,174.514938 568.080017,173.077560 567.059326,171.269257
	C568.035767,172.356750 569.014954,173.815155 570.054932,175.612946
z"/>
<path fill="#F4542B" opacity="1.000000" stroke="none"
	d="
M74.642334,171.057510
	C74.152756,172.525589 73.362137,174.152603 72.227814,175.866425
	C72.703163,174.374313 73.522217,172.795380 74.642334,171.057510
z"/>
<path fill="#F4542B" opacity="1.000000" stroke="none"
	d="
M567.054993,170.612946
	C566.098267,169.513794 565.080933,168.075226 564.061768,166.265289
	C565.038086,167.353821 566.016235,168.813690 567.054993,170.612946
z"/>
<path fill="#F4542B" opacity="1.000000" stroke="none"
	d="
M77.639755,166.054749
	C77.150543,167.522491 76.361206,169.150986 75.228104,170.866425
	C75.702759,169.374069 76.521194,167.794769 77.639755,166.054749
z"/>
<path fill="#F4542B" opacity="1.000000" stroke="none"
	d="
M538.336609,511.001617
	C538.844177,509.834198 539.643433,508.499939 540.802795,507.103577
	C540.317993,508.305908 539.473145,509.570312 538.336609,511.001617
z"/>
<path fill="#F4542B" opacity="1.000000" stroke="none"
	d="
M130.998383,538.336670
	C132.165787,538.844238 133.500076,539.643494 134.896469,540.802856
	C133.694138,540.318115 132.429688,539.473206 130.998383,538.336670
z"/>
<path fill="#F4542B" opacity="1.000000" stroke="none"
	d="
M500.000488,94.664642
	C498.835663,94.169449 497.505310,93.382973 496.114288,92.238335
	C497.314026,92.711243 498.574493,93.542305 500.000488,94.664642
z"/>
<path fill="#F4542B" opacity="1.000000" stroke="none"
	d="
M145.615997,91.940277
	C144.822037,92.901184 143.698273,93.921951 142.204224,94.949341
	C142.984680,93.970688 144.135437,92.985405 145.615997,91.940277
z"/>
<path fill="#F4542B" opacity="1.000000" stroke="none"
	d="
M495.953247,91.645737
	C494.794617,91.156960 493.483154,90.373985 492.112549,89.235954
	C493.302368,89.704445 494.551422,90.528000 495.953247,91.645737
z"/>
<path fill="#F4542B" opacity="1.000000" stroke="none"
	d="
M149.618530,88.940552
	C148.839874,89.898895 147.733780,90.916641 146.260757,91.937263
	C147.026245,90.960075 148.158646,89.980019 149.618530,88.940552
z"/>
<path fill="#F4542B" opacity="1.000000" stroke="none"
	d="
M488.949066,86.649155
	C487.791473,86.159218 486.481415,85.374908 485.112427,84.235641
	C486.301208,84.705383 487.548920,85.530083 488.949066,86.649155
z"/>
<path fill="#F4542B" opacity="1.000000" stroke="none"
	d="
M100.912247,507.370178
	C101.872002,508.168915 102.906601,509.296112 103.948105,510.796448
	C102.965706,510.012573 101.976402,508.855621 100.912247,507.370178
z"/>
<path fill="#F4542B" opacity="1.000000" stroke="none"
	d="
M543.336426,504.999695
	C543.844666,503.832367 544.645081,502.498901 545.805725,501.103760
	C545.320129,502.305908 544.474304,503.569702 543.336426,504.999695
z"/>
<path fill="#F4542B" opacity="1.000000" stroke="none"
	d="
M95.910110,501.370544
	C96.870087,502.168243 97.905762,503.294159 98.948669,504.793091
	C97.965858,504.010284 96.975830,502.854523 95.910110,501.370544
z"/>
<path fill="#F4542B" opacity="1.000000" stroke="none"
	d="
M547.335449,500.000458
	C547.830627,498.835663 548.617065,497.505341 549.761719,496.114319
	C549.288757,497.314026 548.457703,498.574463 547.335449,500.000458
z"/>
<path fill="#F4542B" opacity="1.000000" stroke="none"
	d="
M91.940292,496.384094
	C92.901207,497.178040 93.921959,498.301758 94.949341,499.795776
	C93.970695,499.015350 92.985413,497.864624 91.940292,496.384094
z"/>
<path fill="#F4542B" opacity="1.000000" stroke="none"
	d="
M550.354248,495.953247
	C550.843079,494.794586 551.626099,493.483124 552.764099,492.112488
	C552.295532,493.302368 551.471985,494.551422 550.354248,495.953247
z"/>
<path fill="#F4542B" opacity="1.000000" stroke="none"
	d="
M88.940559,492.381470
	C89.898911,493.160095 90.916656,494.266205 91.937263,495.739227
	C90.960068,494.973755 89.980011,493.841339 88.940559,492.381470
z"/>
<path fill="#F4542B" opacity="1.000000" stroke="none"
	d="
M553.059448,149.618530
	C552.101074,148.839905 551.083313,147.733795 550.062744,146.260757
	C551.039917,147.026245 552.020020,148.158661 553.059448,149.618530
z"/>
<path fill="#F4542B" opacity="1.000000" stroke="none"
	d="
M91.645744,146.046692
	C91.156967,147.205383 90.374001,148.516861 89.235962,149.887512
	C89.704437,148.697632 90.527992,147.448563 91.645744,146.046692
z"/>
<path fill="#F4542B" opacity="1.000000" stroke="none"
	d="
M134.629730,100.912308
	C133.831100,101.871735 132.704117,102.906166 131.204147,103.947662
	C131.987900,102.965591 133.144638,101.976448 134.629730,100.912308
z"/>
<path fill="#F4542B" opacity="1.000000" stroke="none"
	d="
M103.663422,130.998383
	C103.155830,132.165802 102.356522,133.500076 101.197151,134.896454
	C101.681961,133.694138 102.526825,132.429688 103.663422,130.998383
z"/>
<path fill="#F4542B" opacity="1.000000" stroke="none"
	d="
M541.087891,134.632294
	C540.130798,133.849304 539.099060,132.740311 538.064331,131.261627
	C539.045288,132.030060 540.029236,133.168167 541.087891,134.632294
z"/>
<path fill="#F4542B" opacity="1.000000" stroke="none"
	d="
M98.663773,137.000244
	C98.155403,138.167557 97.354980,139.501068 96.194351,140.896210
	C96.679993,139.694046 97.525856,138.430237 98.663773,137.000244
z"/>
<path fill="#F4542B" opacity="1.000000" stroke="none"
	d="
M504.999756,98.663757
	C503.832428,98.155388 502.498932,97.354965 501.103760,96.194321
	C502.305908,96.679970 503.569733,97.525841 504.999756,98.663757
z"/>
<path fill="#F4542B" opacity="1.000000" stroke="none"
	d="
M546.089844,140.629364
	C545.129883,139.831711 544.094177,138.705826 543.051331,137.206955
	C544.034180,137.989685 545.024170,139.145416 546.089844,140.629364
z"/>
<path fill="#F4542B" opacity="1.000000" stroke="none"
	d="
M94.664642,141.999542
	C94.169434,143.164337 93.382957,144.494675 92.238327,145.885712
	C92.711243,144.685974 93.542305,143.425522 94.664642,141.999542
z"/>
<path fill="#F4542B" opacity="1.000000" stroke="none"
	d="
M550.059692,145.615997
	C549.098755,144.821991 548.077942,143.698212 547.050598,142.204132
	C548.029358,142.984634 549.014587,144.135422 550.059692,145.615997
z"/>
<path fill="#F4542B" opacity="1.000000" stroke="none"
	d="
M140.629395,95.910126
	C139.831696,96.870087 138.705795,97.905754 137.206924,98.948662
	C137.989700,97.965874 139.145447,96.975853 140.629395,95.910126
z"/>
<path fill="#F4542B" opacity="1.000000" stroke="none"
	d="
M492.381470,553.059448
	C493.160095,552.101135 494.266205,551.083374 495.739197,550.062744
	C494.973694,551.039917 493.841309,552.019958 492.381470,553.059448
z"/>
<path fill="#F4542B" opacity="1.000000" stroke="none"
	d="
M146.046692,550.354248
	C147.205383,550.843079 148.516861,551.626038 149.887512,552.764099
	C148.697617,552.295593 147.448563,551.471985 146.046692,550.354248
z"/>
<path fill="#F4542B" opacity="1.000000" stroke="none"
	d="
M496.384094,550.059692
	C497.178040,549.098694 498.301788,548.077942 499.795807,547.050659
	C499.015350,548.029297 497.864624,549.014587 496.384094,550.059692
z"/>
<path fill="#F4542B" opacity="1.000000" stroke="none"
	d="
M141.999527,547.335449
	C143.164337,547.830627 144.494659,548.617126 145.885712,549.761719
	C144.685974,549.288818 143.425522,548.457764 141.999527,547.335449
z"/>
<path fill="#F4542B" opacity="1.000000" stroke="none"
	d="
M501.370544,546.089905
	C502.168274,545.129944 503.294189,544.094238 504.793091,543.051270
	C504.010315,544.034180 502.854523,545.024170 501.370544,546.089905
z"/>
<path fill="#F4542B" opacity="1.000000" stroke="none"
	d="
M137.000244,543.336304
	C138.167557,543.844604 139.501068,544.645020 140.896210,545.805664
	C139.694046,545.320068 138.430237,544.474182 137.000244,543.336304
z"/>
<path fill="#F4542B" opacity="1.000000" stroke="none"
	d="
M507.370087,541.087524
	C508.168671,540.127991 509.295532,539.093384 510.795471,538.051880
	C510.011810,539.034119 508.855103,540.023254 507.370087,541.087524
z"/>
<path fill="#F5542A" opacity="1.000000" stroke="none"
	d="
M609.920532,314.544312
	C609.586243,312.868988 609.302979,310.777710 609.031250,308.266663
	C609.352417,309.940704 609.661987,312.034515 609.920532,314.544312
z"/>
<path fill="#F4542B" opacity="1.000000" stroke="none"
	d="
M537.967651,130.657333
	C537.098450,130.151321 536.088196,129.363129 535.060303,128.206421
	C535.970642,128.683655 536.898560,129.529404 537.967651,130.657333
z"/>
<path fill="#F4542B" opacity="1.000000" stroke="none"
	d="
M522.733643,527.300903
	C523.092346,526.597351 523.742798,525.839417 524.750488,525.070801
	C524.413635,525.788940 523.719482,526.517700 522.733643,527.300903
z"/>
<path fill="#F4542B" opacity="1.000000" stroke="none"
	d="
M152.642395,86.915817
	C152.173706,87.536026 151.386780,88.229286 150.247070,88.931885
	C150.704269,88.290436 151.514221,87.639656 152.642395,86.915817
z"/>
<path fill="#F4542B" opacity="1.000000" stroke="none"
	d="
M156.627136,83.938538
	C156.149368,84.564461 155.347961,85.249222 154.193054,85.945618
	C154.660858,85.303947 155.482193,84.650665 156.627136,83.938538
z"/>
<path fill="#F4542B" opacity="1.000000" stroke="none"
	d="
M150.045044,553.348633
	C150.856094,553.536072 151.817871,554.013062 152.870331,554.823853
	C152.039261,554.651184 151.117508,554.144653 150.045044,553.348633
z"/>
<path fill="#F4542B" opacity="1.000000" stroke="none"
	d="
M489.357666,555.084106
	C489.826355,554.463989 490.613251,553.770691 491.752930,553.067993
	C491.295715,553.709412 490.485779,554.360229 489.357666,555.084106
z"/>
<path fill="#F4542B" opacity="1.000000" stroke="none"
	d="
M154.000732,556.329468
	C154.814209,556.511841 155.788956,556.980896 156.857788,557.785278
	C156.021927,557.619141 155.091949,557.117676 154.000732,556.329468
z"/>
<path fill="#F4542B" opacity="1.000000" stroke="none"
	d="
M485.372803,558.061523
	C485.850647,557.435486 486.652130,556.750671 487.807129,556.054199
	C487.339294,556.695923 486.517883,557.349304 485.372803,558.061523
z"/>
<path fill="#F4542B" opacity="1.000000" stroke="none"
	d="
M157.043686,558.348145
	C157.852997,558.524963 158.812119,558.990234 159.861694,559.787476
	C159.032578,559.625122 158.113037,559.130859 157.043686,558.348145
z"/>
<path fill="#F4542B" opacity="1.000000" stroke="none"
	d="
M482.368958,560.060486
	C482.834778,559.437622 483.620514,558.756104 484.756226,558.067017
	C484.300385,558.706909 483.494598,559.354370 482.368958,560.060486
z"/>
<path fill="#F4542B" opacity="1.000000" stroke="none"
	d="
M160.044403,560.347534
	C160.853699,560.524475 161.812500,560.990051 162.861725,561.787476
	C162.032715,561.624939 161.113297,561.130493 160.044403,560.347534
z"/>
<path fill="#F4542B" opacity="1.000000" stroke="none"
	d="
M479.368896,562.060425
	C479.834473,561.437378 480.619965,560.755737 481.755371,560.066345
	C481.299774,560.706360 480.494324,561.354065 479.368896,562.060425
z"/>
<path fill="#F4542B" opacity="1.000000" stroke="none"
	d="
M163.044342,562.347473
	C163.853592,562.524841 164.812302,562.990845 165.861053,563.788879
	C165.031998,563.626038 164.112900,563.131042 163.044342,562.347473
z"/>
<path fill="#F4542B" opacity="1.000000" stroke="none"
	d="
M476.369659,564.061646
	C476.835052,563.438599 477.620209,562.756409 478.755341,562.066406
	C478.299988,562.706604 477.494690,563.354553 476.369659,564.061646
z"/>
<path fill="#F4542B" opacity="1.000000" stroke="none"
	d="
M484.956055,83.652084
	C484.146698,83.475227 483.187744,83.009827 482.138306,82.212517
	C482.967407,82.374916 483.886932,82.869225 484.956055,83.652084
z"/>
<path fill="#F4542B" opacity="1.000000" stroke="none"
	d="
M159.631134,81.939484
	C159.165283,82.562378 158.379517,83.243866 157.243774,83.932976
	C157.699615,83.293098 158.505417,82.645592 159.631134,81.939484
z"/>
<path fill="#F4542B" opacity="1.000000" stroke="none"
	d="
M481.955597,81.652466
	C481.146301,81.475494 480.187500,81.009949 479.138306,80.212517
	C479.967285,80.375046 480.886688,80.869469 481.955597,81.652466
z"/>
<path fill="#F4542B" opacity="1.000000" stroke="none"
	d="
M162.631165,79.939499
	C162.165573,80.562508 161.380096,81.244110 160.244751,81.933502
	C160.700348,81.293571 161.505798,80.645836 162.631165,79.939499
z"/>
<path fill="#F4542B" opacity="1.000000" stroke="none"
	d="
M165.630356,77.938446
	C165.164978,78.561440 164.379852,79.243546 163.244797,79.933472
	C163.700119,79.293388 164.505356,78.645470 165.630356,77.938446
z"/>
<path fill="#F4542B" opacity="1.000000" stroke="none"
	d="
M525.967651,117.660034
	C525.195251,117.410866 524.282593,116.882401 523.398376,115.999954
	C524.226990,116.224236 525.027222,116.802490 525.967651,117.660034
z"/>
<path fill="#F4542B" opacity="1.000000" stroke="none"
	d="
M85.670372,154.000870
	C85.487991,154.814346 85.018845,155.789032 84.214371,156.857727
	C84.380562,156.021866 84.882088,155.091965 85.670372,154.000870
z"/>
<path fill="#F4542B" opacity="1.000000" stroke="none"
	d="
M491.955872,88.652267
	C491.146759,88.476341 490.187897,88.011909 489.137299,87.216370
	C489.965759,87.378098 490.885925,87.870926 491.955872,88.652267
z"/>
<path fill="#F4542B" opacity="1.000000" stroke="none"
	d="
M77.938202,476.369720
	C78.561409,476.835083 79.243530,477.620300 79.933411,478.755432
	C79.293159,478.300110 78.645142,477.494843 77.938202,476.369720
z"/>
<path fill="#F4542B" opacity="1.000000" stroke="none"
	d="
M562.347778,478.955963
	C562.524963,478.146515 562.990906,477.187714 563.788879,476.138855
	C563.626160,476.968048 563.131348,477.887329 562.347778,478.955963
z"/>
<path fill="#F4542B" opacity="1.000000" stroke="none"
	d="
M79.939270,479.368958
	C80.562332,479.834534 81.244026,480.619965 81.933510,481.755310
	C81.293503,481.299774 80.645706,480.494324 79.939270,479.368958
z"/>
<path fill="#F4542B" opacity="1.000000" stroke="none"
	d="
M560.347412,481.955627
	C560.524475,481.146271 560.990173,480.187469 561.787720,479.138336
	C561.625122,479.967407 561.130615,480.886810 560.347412,481.955627
z"/>
<path fill="#F4542B" opacity="1.000000" stroke="none"
	d="
M81.939514,482.368927
	C82.562408,482.834747 83.243881,483.620514 83.932968,484.756195
	C83.293098,484.300354 82.645599,483.494598 81.939514,482.368927
z"/>
<path fill="#F4542B" opacity="1.000000" stroke="none"
	d="
M558.348450,484.956665
	C558.525024,484.147095 558.990234,483.187897 559.787415,482.138306
	C559.625244,482.967590 559.131165,483.887268 558.348450,484.956665
z"/>
<path fill="#F4542B" opacity="1.000000" stroke="none"
	d="
M83.938522,485.372803
	C84.564453,485.850586 85.249237,486.652008 85.945625,487.806946
	C85.303940,487.339142 84.650650,486.517792 83.938522,485.372803
z"/>
<path fill="#F4542B" opacity="1.000000" stroke="none"
	d="
M556.329529,487.999268
	C556.511963,487.185791 556.981140,486.211060 557.785645,485.142334
	C557.619385,485.978210 557.117798,486.908142 556.329529,487.999268
z"/>
<path fill="#F4542B" opacity="1.000000" stroke="none"
	d="
M86.915855,489.357666
	C87.536057,489.826324 88.229301,490.613220 88.931885,491.752899
	C88.290443,491.295746 87.639671,490.485809 86.915855,489.357666
z"/>
<path fill="#F4542B" opacity="1.000000" stroke="none"
	d="
M553.348633,491.954956
	C553.536072,491.143860 554.013000,490.182129 554.823853,489.129700
	C554.651245,489.960785 554.144714,490.882507 553.348633,491.954956
z"/>
<path fill="#F4542B" opacity="1.000000" stroke="none"
	d="
M88.651390,150.045044
	C88.463966,150.856110 87.986977,151.817886 87.176132,152.870331
	C87.348785,152.039246 87.855301,151.117493 88.651390,150.045044
z"/>
<path fill="#F4542B" opacity="1.000000" stroke="none"
	d="
M555.084229,152.642639
	C554.464050,152.173859 553.770691,151.386856 553.067993,150.247070
	C553.709473,150.704315 554.360291,151.514359 555.084229,152.642639
z"/>
<path fill="#F4542B" opacity="1.000000" stroke="none"
	d="
M564.061768,165.630310
	C563.438538,165.164978 562.756409,164.379776 562.066528,163.244629
	C562.706726,163.699936 563.354797,164.505188 564.061768,165.630310
z"/>
<path fill="#F4542B" opacity="1.000000" stroke="none"
	d="
M558.060913,156.627563
	C557.434937,156.149750 556.750244,155.348251 556.053833,154.193237
	C556.695557,154.661118 557.348938,155.482483 558.060913,156.627563
z"/>
<path fill="#F4542B" opacity="1.000000" stroke="none"
	d="
M525.339722,524.967651
	C525.589355,524.195618 526.118164,523.283569 527.000793,522.401001
	C526.776062,523.229553 526.197510,524.028625 525.339722,524.967651
z"/>
<path fill="#F4542B" opacity="1.000000" stroke="none"
	d="
M79.652222,163.044098
	C79.475014,163.853531 79.009109,164.812286 78.211113,165.861084
	C78.373856,165.031906 78.868683,164.112656 79.652222,163.044098
z"/>
<path fill="#F4542B" opacity="1.000000" stroke="none"
	d="
M562.060730,162.631012
	C561.437622,162.165482 560.755920,161.380066 560.066406,160.244766
	C560.706421,160.700302 561.354248,161.505707 562.060730,162.631012
z"/>
<path fill="#F4542B" opacity="1.000000" stroke="none"
	d="
M81.652443,160.044403
	C81.475441,160.853760 81.009827,161.812561 80.212280,162.861679
	C80.374847,162.032608 80.869347,161.113220 81.652443,160.044403
z"/>
<path fill="#F4542B" opacity="1.000000" stroke="none"
	d="
M560.060669,159.631073
	C559.437378,159.165543 558.755798,158.379974 558.066528,157.244507
	C558.706726,157.700073 559.354492,158.505569 560.060669,159.631073
z"/>
<path fill="#F4542B" opacity="1.000000" stroke="none"
	d="
M83.651550,157.043335
	C83.474915,157.852859 83.009712,158.812073 82.212555,159.861710
	C82.374725,159.032425 82.868851,158.112717 83.651550,157.043335
z"/>
<path fill="#F4542B" opacity="1.000000" stroke="none"
	d="
M67.756378,182.999207
	C67.845444,183.170746 67.676056,183.421371 67.311783,183.807373
	C67.077263,183.588013 67.204277,183.299850 67.756378,182.999207
z"/>
<path fill="#F4542B" opacity="1.000000" stroke="none"
	d="
M574.243530,459.000854
	C574.154480,458.829315 574.323914,458.578705 574.688232,458.192749
	C574.922729,458.412140 574.795715,458.700256 574.243530,459.000854
z"/>
<path fill="#E24218" opacity="1.000000" stroke="none"
	d="
M297.000000,213.992950
	C263.903992,213.994125 231.307999,213.994125 198.712006,213.994125
	C198.712860,213.746567 198.713699,213.499023 198.714554,213.251465
	C280.238434,213.251465 361.762329,213.251465 443.286224,213.251465
	C443.286743,213.498230 443.287292,213.745010 443.287842,213.991776
	C394.691895,213.991776 346.095947,213.991776 297.000000,213.992950
z"/>
<path fill="#E23C11" opacity="1.000000" stroke="none"
	d="
M384.209625,193.220032
	C396.391693,192.997818 408.745544,193.130554 421.569153,193.227493
	C420.949066,193.788712 419.864899,194.891861 418.768372,194.904266
	C408.127350,195.024796 397.483978,194.992889 386.842316,194.893021
	C386.017944,194.885284 385.201508,194.034119 384.209625,193.220032
z"/>
<path fill="#E55029" opacity="1.000000" stroke="none"
	d="
M250.624893,146.152420
	C250.658859,151.171814 250.340149,156.351120 249.978119,162.234634
	C245.223129,161.754684 240.658951,161.293991 236.109772,160.415405
	C247.815002,160.030457 247.793854,160.027985 249.091690,148.898605
	C249.196152,148.002808 249.865417,147.172867 250.624893,146.152420
z"/>
<path fill="#E13509" opacity="1.000000" stroke="none"
	d="
M377.172516,191.695007
	C376.857452,177.273956 376.791992,162.518219 376.720001,147.270966
	C377.136292,148.005676 377.919159,149.229767 377.926453,150.458466
	C378.003632,163.455124 377.964630,176.452560 377.922821,189.449646
	C377.920776,190.087082 377.596405,190.723450 377.172516,191.695007
z"/>
<path fill="#E13509" opacity="1.000000" stroke="none"
	d="
M322.827515,147.304993
	C323.130676,161.346756 323.184235,175.723221 323.157471,190.564362
	C322.776733,190.447906 322.211365,189.865143 322.214874,189.285812
	C322.298950,175.403564 322.443970,161.521652 322.827515,147.304993
z"/>
<path fill="#E13509" opacity="1.000000" stroke="none"
	d="
M303.172058,190.695221
	C302.988770,181.461685 303.055115,171.893478 303.552063,162.212402
	C303.795685,171.519867 303.608704,180.940201 303.172058,190.695221
z"/>
<path fill="#E13509" opacity="1.000000" stroke="none"
	d="
M236.623383,178.980835
	C240.613617,178.386078 245.057449,177.797546 250.244675,177.110550
	C250.244675,182.053482 250.244675,186.078415 250.163239,190.566956
	C249.720047,188.622910 248.998917,186.203186 249.079285,183.810364
	C249.205353,180.057617 247.667953,178.691055 244.057297,178.968658
	C241.743729,179.146515 239.404648,178.992355 236.623383,178.980835
z"/>
<path fill="#E4461D" opacity="1.000000" stroke="none"
	d="
M433.486084,347.834686
	C433.341339,345.570984 433.522217,343.149628 433.836243,340.358948
	C433.916840,342.552124 433.864288,345.114563 433.486084,347.834686
z"/>
<path fill="#E4461D" opacity="1.000000" stroke="none"
	d="
M428.486084,403.834686
	C428.341339,401.570984 428.522217,399.149628 428.836243,396.358948
	C428.916840,398.552124 428.864258,401.114563 428.486084,403.834686
z"/>
<path fill="#E4461D" opacity="1.000000" stroke="none"
	d="
M427.484955,414.834808
	C427.340546,412.570831 427.521820,410.149292 427.836243,407.358704
	C427.916504,409.552185 427.863586,412.114746 427.484955,414.834808
z"/>
<path fill="#E4451C" opacity="1.000000" stroke="none"
	d="
M442.486816,246.833588
	C442.343109,244.570541 442.524872,242.149887 442.839111,239.359772
	C442.918518,241.552200 442.865417,244.114105 442.486816,246.833588
z"/>
<path fill="#E4461D" opacity="1.000000" stroke="none"
	d="
M432.485077,358.834778
	C432.340607,356.570984 432.521851,354.149628 432.836243,351.358978
	C432.916534,353.552185 432.863678,356.114685 432.485077,358.834778
z"/>
<path fill="#E4451C" opacity="1.000000" stroke="none"
	d="
M437.487915,302.833466
	C437.343903,300.570557 437.525269,298.149963 437.839111,295.359863
	C437.918823,297.552185 437.866058,300.113953 437.487915,302.833466
z"/>
<path fill="#E4451C" opacity="1.000000" stroke="none"
	d="
M440.501282,268.836731
	C440.354980,266.898285 440.527130,264.806183 440.835419,262.352234
	C440.920959,264.221283 440.870361,266.452209 440.501282,268.836731
z"/>
<path fill="#E4451C" opacity="1.000000" stroke="none"
	d="
M441.483276,257.839905
	C441.341583,255.898712 441.520416,253.806290 441.835419,251.352081
	C441.915680,253.223099 441.859741,255.455872 441.483276,257.839905
z"/>
<path fill="#E4461D" opacity="1.000000" stroke="none"
	d="
M426.481567,425.841187
	C426.339111,423.899200 426.517426,421.806061 426.832581,419.351257
	C426.913727,421.223114 426.858002,423.456543 426.481567,425.841187
z"/>
<path fill="#E4461D" opacity="1.000000" stroke="none"
	d="
M425.499603,436.838074
	C425.352478,434.898773 425.524048,432.805939 425.832520,430.351379
	C425.919067,432.221283 425.868683,434.452942 425.499603,436.838074
z"/>
<path fill="#E4461D" opacity="1.000000" stroke="none"
	d="
M431.481567,369.841187
	C431.339111,367.899200 431.517395,365.806061 431.832581,363.351257
	C431.913727,365.223114 431.858002,367.456543 431.481567,369.841187
z"/>
<path fill="#E4461D" opacity="1.000000" stroke="none"
	d="
M430.481140,380.841187
	C430.338684,378.899200 430.517181,376.806091 430.832520,374.351318
	C430.913666,376.223114 430.857880,378.456604 430.481140,380.841187
z"/>
<path fill="#E4451C" opacity="1.000000" stroke="none"
	d="
M204.801849,307.285400
	C205.332504,309.055939 205.636795,311.122833 205.889175,313.590454
	C205.416672,311.854675 204.996094,309.718231 204.801849,307.285400
z"/>
<path fill="#E4451C" opacity="1.000000" stroke="none"
	d="
M436.483307,313.839905
	C436.341583,311.898743 436.520416,309.806335 436.835449,307.352173
	C436.915680,309.223145 436.859772,311.455902 436.483307,313.839905
z"/>
<path fill="#E4451C" opacity="1.000000" stroke="none"
	d="
M435.501282,324.836731
	C435.354980,322.898285 435.527100,320.806183 435.835419,318.352234
	C435.920959,320.221283 435.870331,322.452209 435.501282,324.836731
z"/>
<path fill="#E4451C" opacity="1.000000" stroke="none"
	d="
M205.805847,318.271881
	C206.309753,319.732788 206.591309,321.476501 206.837463,323.605469
	C206.395874,322.178680 205.989685,320.366699 205.805847,318.271881
z"/>
<path fill="#E2390E" opacity="1.000000" stroke="none"
	d="
M339.528351,174.973724
	C339.093170,173.883499 339.093170,172.780060 339.093170,170.895065
	C340.109558,172.370712 340.743408,173.290970 341.539734,174.531647
	C341.122681,174.888229 340.543121,174.924362 339.528351,174.973724
z"/>
<path fill="#E44D26" opacity="1.000000" stroke="none"
	d="
M247.158569,313.006409
	C247.065018,311.941833 246.971481,310.877228 247.148468,309.115906
	C246.999100,306.281586 246.579208,304.143982 246.159332,302.006378
	C246.064713,300.942078 245.970093,299.877808 246.147202,298.116333
	C245.998886,295.281555 245.578842,293.143982 245.158783,291.006378
	C245.064880,290.259399 244.970963,289.512451 245.151886,288.080414
	C245.004074,284.932373 244.581436,282.469391 244.158783,280.006409
	C244.064880,279.259430 243.970978,278.512482 244.150055,277.097778
	C244.618378,274.956635 244.813705,273.483215 244.987488,271.682587
	C244.359314,270.573547 243.752670,269.791656 243.146042,269.009796
	C243.069702,268.562317 242.993362,268.114868 243.301025,267.327057
	C244.452454,266.679657 245.219894,266.372589 245.987335,266.065521
	C263.271881,266.005463 280.556396,265.903198 297.840973,265.894348
	C330.589417,265.877533 363.337860,265.914307 396.690857,266.186157
	C397.509979,266.667419 397.753052,266.854309 398.024658,267.004181
	C398.023926,267.761139 398.023193,268.518127 397.602173,269.801880
	C397.162170,272.896515 397.142487,275.464325 397.122833,278.032135
	C397.083130,279.419220 397.043427,280.806305 396.597168,282.754944
	C396.167999,285.554413 396.145416,287.792328 396.122833,290.030243
	C396.122833,292.499542 396.122833,294.968842 396.122833,297.888611
	C356.273712,297.888611 316.864868,297.888611 276.829681,297.888611
	C277.947479,308.396210 279.010986,318.393402 280.138306,328.990631
	C316.542694,328.990631 352.817688,328.990631 389.654144,329.375061
	C390.518433,332.516998 390.821289,335.274445 391.124176,338.031921
	C391.084045,339.418884 391.043945,340.805817 390.597473,342.754303
	C390.168793,345.554535 390.146484,347.793213 390.124176,350.031921
	C390.087738,351.419556 390.051300,352.807159 389.603302,354.755188
	C389.169250,357.553711 389.146698,359.791870 389.124176,362.030029
	C388.745544,367.733521 388.366913,373.437012 387.579163,379.735107
	C387.122620,382.890045 387.075256,385.450439 387.027893,388.010803
	C387.019714,389.080994 387.011536,390.151215 386.594635,391.772705
	C386.133240,394.886292 386.080566,397.448547 386.027893,400.010803
	C386.019684,401.080994 386.011505,402.151215 385.594604,403.772705
	C385.133240,406.886261 385.080566,409.448547 385.027893,412.010803
	C385.095764,424.780823 385.081940,424.729553 372.816650,428.040649
	C356.967743,432.319183 341.168030,436.782959 325.284424,440.926636
	C322.718781,441.595978 319.678680,441.592133 317.111084,440.925049
	C298.490479,436.086884 279.955292,430.920288 261.339661,426.062286
	C258.028320,425.198181 256.738342,423.828949 256.837463,420.319641
	C256.944580,416.525787 256.234436,412.708801 256.151306,408.160522
	C256.001495,405.281891 255.581085,403.144653 255.160706,401.007446
	C255.066269,400.259979 254.971817,399.512543 255.149628,398.092102
	C255.001495,395.281891 254.581100,393.144684 254.160706,391.007446
	C254.066269,390.259979 253.971817,389.512543 254.151688,388.097473
	C254.620087,385.956085 254.814163,384.482300 254.932404,382.724152
	C254.287796,381.963989 253.719025,381.488220 253.150269,381.012451
	C253.023224,379.950226 252.896194,378.888031 253.030319,377.303680
	C253.565033,376.609802 253.794449,376.391632 253.979691,376.126984
	C263.013458,376.081787 272.047211,376.036591 281.616211,376.331085
	C282.710663,377.109253 283.269836,377.547699 283.829041,377.986176
	C283.963837,379.046295 284.098633,380.106384 283.999512,381.777740
	C284.016602,382.988373 284.267700,383.587799 284.518768,384.187195
	C285.018616,388.469849 285.320831,392.790314 286.128845,397.014038
	C286.400574,398.434357 287.704651,400.338989 288.969208,400.778534
	C298.123505,403.960571 307.376801,406.861298 316.625793,409.765167
	C319.365936,410.625488 321.870300,410.641754 324.741455,409.077698
	C327.871277,407.372742 331.685974,406.925049 335.860229,406.133545
	C339.342743,405.314972 342.167084,404.292114 344.991455,403.269287
	C345.418488,403.146454 345.845520,403.023621 346.842834,403.084869
	C348.939270,402.602295 350.465363,401.935669 351.991486,401.269043
	C352.418457,401.146271 352.845428,401.023499 353.830872,401.076965
	C357.315643,401.324951 357.158356,399.906097 355.967804,397.987762
	C355.967896,397.233887 355.967957,396.479980 356.389282,395.202209
	C356.862976,392.114807 356.915405,389.551270 356.967804,386.987732
	C356.976257,385.918579 356.984680,384.849396 357.401306,383.229431
	C357.862305,380.114960 357.915039,377.551361 357.967804,374.987732
	C357.976868,373.918640 357.985901,372.849518 358.402588,371.229431
	C358.862732,368.114838 358.915283,365.551300 358.967804,362.987732
	C358.824951,362.158417 358.682068,361.329132 357.956726,360.045349
	C355.240784,359.390808 353.107635,359.019745 350.973877,359.016235
	C318.323822,358.962830 285.673676,358.957367 252.997559,358.621735
	C252.367264,357.537262 251.762955,356.771820 251.158646,356.006348
	C251.028900,354.948212 250.899155,353.890045 251.072235,352.144684
	C250.978104,349.312439 250.581161,347.167389 250.184235,345.022369
	C250.046204,343.960358 249.908188,342.898315 250.054871,341.185822
	C250.381119,339.092072 250.422653,337.648834 250.464188,336.205566
	C250.089828,336.463776 249.715469,336.721985 249.341125,336.980225
	C249.187286,335.276672 249.033463,333.573120 249.149323,331.144348
	C248.998871,328.281555 248.578720,326.143982 248.158569,324.006409
	C248.065018,322.941833 247.971481,321.877228 248.148453,320.115906
	C247.998840,317.281586 247.578705,315.144012 247.158569,313.006409
M283.527740,386.499756
	C283.527740,386.499756 283.484100,386.517700 283.527740,386.499756
z"/>
<path fill="#E2390E" opacity="1.000000" stroke="none"
	d="
M253.023575,358.940735
	C285.673676,358.957367 318.323822,358.962830 350.973877,359.016235
	C353.107635,359.019745 355.240784,359.390808 357.708008,359.844391
	C325.984558,360.166382 293.927399,360.246063 261.870178,360.286499
	C258.564636,360.290680 255.258804,360.060516 252.113678,359.487793
	C252.524017,359.004578 252.773804,358.972656 253.023575,358.940735
z"/>
<path fill="#E4451C" opacity="1.000000" stroke="none"
	d="
M385.160583,411.641602
	C385.080566,409.448547 385.133240,406.886261 385.511414,404.166565
	C385.655731,406.430206 385.474518,408.851288 385.160583,411.641602
z"/>
<path fill="#E4471E" opacity="1.000000" stroke="none"
	d="
M344.624878,403.315552
	C342.167084,404.292114 339.342743,405.314972 336.252258,406.152924
	C338.743469,405.099304 341.500854,404.230560 344.624878,403.315552
z"/>
<path fill="#E4451C" opacity="1.000000" stroke="none"
	d="
M386.160583,399.641602
	C386.080566,397.448547 386.133240,394.886292 386.511444,392.166565
	C386.655762,394.430206 386.474518,396.851288 386.160583,399.641602
z"/>
<path fill="#E4471E" opacity="1.000000" stroke="none"
	d="
M356.829651,387.356598
	C356.915405,389.551270 356.862976,392.114807 356.484802,394.835754
	C356.336517,392.570587 356.514008,390.148010 356.829651,387.356598
z"/>
<path fill="#E4451C" opacity="1.000000" stroke="none"
	d="
M387.160583,387.641541
	C387.075256,385.450439 387.122620,382.890045 387.493225,380.169861
	C387.642059,382.430756 387.467682,384.851532 387.160583,387.641541
z"/>
<path fill="#E4471E" opacity="1.000000" stroke="none"
	d="
M357.833740,375.356903
	C357.915039,377.551361 357.862305,380.114960 357.483643,382.835876
	C357.338409,380.570831 357.519043,378.148438 357.833740,375.356903
z"/>
<path fill="#E4471E" opacity="1.000000" stroke="none"
	d="
M358.833740,363.356659
	C358.915283,365.551300 358.862732,368.114838 358.484406,370.835785
	C358.338959,368.570648 358.519318,366.148102 358.833740,363.356659
z"/>
<path fill="#E4471E" opacity="1.000000" stroke="none"
	d="
M244.103882,280.421051
	C244.581436,282.469391 245.004074,284.932373 245.197418,287.704712
	C244.661728,285.621307 244.355347,283.228485 244.103882,280.421051
z"/>
<path fill="#E3441A" opacity="1.000000" stroke="none"
	d="
M391.219604,337.640686
	C390.821289,335.274445 390.518433,332.516998 390.120361,329.440582
	C390.674347,329.872925 391.836700,330.601135 391.871735,331.380066
	C391.959106,333.324249 391.534271,335.291504 391.219604,337.640686
z"/>
<path fill="#E4471E" opacity="1.000000" stroke="none"
	d="
M248.105713,324.407288
	C248.578720,326.143982 248.998871,328.281555 249.193573,330.716614
	C248.663025,328.945465 248.357941,326.876801 248.105713,324.407288
z"/>
<path fill="#E34319" opacity="1.000000" stroke="none"
	d="
M397.217621,277.644958
	C397.142487,275.464325 397.162170,272.896515 397.507660,270.169983
	C397.659821,272.426758 397.486115,274.842285 397.217621,277.644958
z"/>
<path fill="#E4471E" opacity="1.000000" stroke="none"
	d="
M245.105957,291.407349
	C245.578842,293.143982 245.998886,295.281555 246.193527,297.716614
	C245.663116,295.945496 245.358124,293.876923 245.105957,291.407349
z"/>
<path fill="#E4471E" opacity="1.000000" stroke="none"
	d="
M246.106323,302.407349
	C246.579208,304.143982 246.999100,306.281586 247.193542,308.716644
	C246.663177,306.945496 246.358246,304.876892 246.106323,302.407349
z"/>
<path fill="#E4461D" opacity="1.000000" stroke="none"
	d="
M254.108276,391.408325
	C254.581100,393.144684 255.001495,395.281891 255.196045,397.716187
	C254.665421,395.945251 254.360626,393.877258 254.108276,391.408325
z"/>
<path fill="#E4471E" opacity="1.000000" stroke="none"
	d="
M247.105759,313.407379
	C247.578705,315.144012 247.998840,317.281586 248.193542,319.716644
	C247.663055,317.945526 247.358002,315.876923 247.105759,313.407379
z"/>
<path fill="#E4461D" opacity="1.000000" stroke="none"
	d="
M255.108276,401.408325
	C255.581085,403.144653 256.001495,405.281891 256.196045,407.716187
	C255.665436,405.945251 255.360641,403.877258 255.108276,401.408325
z"/>
<path fill="#E34319" opacity="1.000000" stroke="none"
	d="
M396.264709,289.666809
	C396.145416,287.792328 396.167999,285.554413 396.511963,283.163879
	C396.691071,285.108643 396.548828,287.206024 396.264709,289.666809
z"/>
<path fill="#E3441A" opacity="1.000000" stroke="none"
	d="
M389.266357,361.666687
	C389.146698,359.791870 389.169250,357.553711 389.513367,355.163116
	C389.692810,357.108246 389.550690,359.205811 389.266357,361.666687
z"/>
<path fill="#E3441A" opacity="1.000000" stroke="none"
	d="
M390.218445,349.652405
	C390.146484,347.793213 390.168793,345.554535 390.512665,343.163269
	C390.660400,345.098114 390.486572,347.185516 390.218445,349.652405
z"/>
<path fill="#E2390E" opacity="1.000000" stroke="none"
	d="
M250.134201,345.417480
	C250.581161,347.167389 250.978104,349.312439 251.138580,351.749207
	C250.629456,349.964844 250.356812,347.888702 250.134201,345.417480
z"/>
<path fill="#E4471E" opacity="1.000000" stroke="none"
	d="
M245.009018,272.009766
	C244.813705,273.483215 244.618378,274.956635 244.195587,276.722107
	C243.641098,275.586151 243.314102,274.158203 243.373672,272.367126
	C244.176498,272.005920 244.592758,272.007843 245.009018,272.009766
z"/>
<path fill="#E4461D" opacity="1.000000" stroke="none"
	d="
M255.008270,383.008545
	C254.814163,384.482300 254.620087,385.956085 254.198120,387.721558
	C253.643173,386.584961 253.316132,385.156647 253.376358,383.366058
	C254.178513,383.005371 254.593399,383.006958 255.008270,383.008545
z"/>
<path fill="#E4471E" opacity="1.000000" stroke="none"
	d="
M351.654175,401.304626
	C350.465363,401.935669 348.939270,402.602295 347.179199,403.075500
	C348.402435,402.368103 349.859619,401.854187 351.654175,401.304626
z"/>
<path fill="#E4471E" opacity="1.000000" stroke="none"
	d="
M355.830383,398.261841
	C357.158356,399.906097 357.315643,401.324951 354.167114,401.067688
	C354.527618,400.100067 355.110291,399.317993 355.830383,398.261841
z"/>
<path fill="#E2390E" opacity="1.000000" stroke="none"
	d="
M249.322021,337.323853
	C249.715469,336.721985 250.089828,336.463776 250.464188,336.205566
	C250.422653,337.648834 250.381119,339.092072 250.120834,340.788116
	C249.702377,339.916443 249.502655,338.791962 249.322021,337.323853
z"/>
<path fill="#E34319" opacity="1.000000" stroke="none"
	d="
M244.987488,271.682587
	C244.592758,272.007843 244.176498,272.005920 243.448151,272.000336
	C243.097229,271.248047 243.058411,270.499481 243.082825,269.380341
	C243.752670,269.791656 244.359314,270.573547 244.987488,271.682587
z"/>
<path fill="#E4471E" opacity="1.000000" stroke="none"
	d="
M252.997559,358.621735
	C252.773804,358.972656 252.524017,359.004578 251.897736,359.067139
	C251.362656,358.275757 251.204071,357.453766 251.102066,356.319031
	C251.762955,356.771820 252.367264,357.537262 252.997559,358.621735
z"/>
<path fill="#E24016" opacity="1.000000" stroke="none"
	d="
M283.877136,377.645752
	C283.269836,377.547699 282.710663,377.109253 282.081238,376.399048
	C282.649078,376.520020 283.287170,376.912659 283.877136,377.645752
z"/>
<path fill="#E24016" opacity="1.000000" stroke="none"
	d="
M254.932419,382.724152
	C254.593399,383.006958 254.178513,383.005371 253.452591,382.999512
	C253.103470,382.553162 253.065399,382.111145 253.088806,381.340759
	C253.719025,381.488220 254.287796,381.963989 254.932419,382.724152
z"/>
<path fill="#E34319" opacity="1.000000" stroke="none"
	d="
M245.631256,265.993805
	C245.219894,266.372589 244.452454,266.679657 243.365387,266.991577
	C243.788895,266.638336 244.532028,266.280212 245.631256,265.993805
z"/>
<path fill="#E24016" opacity="1.000000" stroke="none"
	d="
M284.569214,383.804199
	C284.267700,383.587799 284.016602,382.988373 283.940796,382.175537
	C284.283936,382.448456 284.451813,382.934845 284.569214,383.804199
z"/>
<path fill="#E24016" opacity="1.000000" stroke="none"
	d="
M253.679626,376.105927
	C253.794449,376.391632 253.565033,376.609802 253.087677,376.906036
	C253.049118,376.715302 253.214325,376.400085 253.679626,376.105927
z"/>
<path fill="#E34319" opacity="1.000000" stroke="none"
	d="
M398.059143,266.703613
	C397.753052,266.854309 397.509979,266.667419 397.155457,266.260193
	C397.374878,266.185608 397.734283,266.294312 398.059143,266.703613
z"/>
<path fill="#E44D26" opacity="1.000000" stroke="none"
	d="
M360.214539,171.462296
	C360.502350,172.335495 360.449524,173.410828 360.396667,174.486160
	C359.937714,174.398972 359.478790,174.311798 359.019836,174.224609
	C359.304504,173.371216 359.589203,172.517822 360.214539,171.462296
z"/>
<path fill="#E24016" opacity="1.000000" stroke="none"
	d="
M283.505920,386.508728
	C283.484100,386.517700 283.527740,386.499756 283.505920,386.508728
z"/>
</svg>
