<svg version="1.1" id="Layer_1" xmlns="http://www.w3.org/2000/svg" xmlns:xlink="http://www.w3.org/1999/xlink" x="0px" y="0px"
	 width="100%" viewBox="0 0 295 293" enable-background="new 0 0 295 293" xml:space="preserve">
<path fill="#FADF1C" opacity="1.000000" stroke="none"
	d="
M124.000000,0.999999
	C140.020889,1.000000 156.041794,1.000000 172.728638,1.352471
	C187.692093,3.485139 201.177872,8.141093 213.897141,14.575498
	C231.621719,23.542000 247.312973,35.226467 260.300903,50.609486
	C275.843964,69.018860 286.747620,89.569916 292.062042,113.050629
	C293.557709,119.658989 294.697174,126.347984 296.000000,133.000000
	C296.000000,141.687561 296.000000,150.375137 295.638062,159.745804
	C294.135162,168.043594 293.722595,175.854843 291.729797,183.239655
	C282.046112,219.125366 261.991882,247.894974 231.206177,268.914215
	C216.058807,279.256195 199.608490,286.741394 181.487961,290.260620
	C175.316040,291.459290 169.162140,292.750885 163.000000,294.000000
	C153.979111,294.000000 144.958206,294.000000 135.257843,293.640076
	C129.389603,292.525299 124.159111,291.984070 119.019081,290.979797
	C92.145218,285.729126 68.728004,273.466888 48.661114,255.037369
	C33.101532,240.747406 21.154682,223.750092 12.997284,204.143677
	C8.002414,192.138428 4.537246,179.771149 2.983852,166.860077
	C2.386958,161.898987 1.664983,156.952911 1.000001,152.000000
	C1.000000,148.969406 1.000000,145.938812 1.366635,142.230621
	C2.150579,136.632355 2.514172,131.706451 2.995315,126.792061
	C4.412930,112.312546 8.894878,98.695602 14.836278,85.517731
	C24.274347,64.584312 38.191753,47.133530 55.887482,32.559292
	C68.278473,22.354044 81.880371,14.276933 97.016624,9.012639
	C105.869186,5.933770 114.996361,3.644490 124.000000,0.999999
M150.983521,129.337936
	C154.235855,134.271286 156.637024,140.194061 160.945129,143.900116
	C167.016937,149.123383 174.513962,152.684372 181.377350,156.994720
	C186.552689,160.244934 192.351547,162.860825 196.695282,166.996017
	C203.928268,173.881714 201.930557,185.754898 193.171967,190.240128
	C189.893005,191.919266 185.948044,192.713654 182.230164,193.040512
	C171.871307,193.951263 162.183594,191.114822 152.509995,186.209137
	C151.158951,192.133896 150.220657,197.691513 148.558029,203.023254
	C147.482361,206.472717 148.567139,207.844543 151.576416,208.962219
	C166.504608,214.506653 181.739853,215.942734 197.170715,211.782043
	C224.463684,204.422897 235.086761,172.110443 217.121124,151.524399
	C210.374405,143.793640 201.246384,139.647781 192.311874,135.156113
	C187.594101,132.784332 182.752274,130.284973 178.774719,126.894859
	C171.065689,120.324371 172.900055,108.649101 182.284439,104.853325
	C186.435333,103.174377 191.417343,102.458519 195.872849,102.880547
	C202.530746,103.511185 209.056870,105.533257 216.053070,107.053383
	C217.561600,100.970970 219.187561,94.415131 220.918320,87.436745
	C204.293015,80.856865 187.966537,79.409538 171.511505,86.027184
	C154.339294,92.933243 145.941666,110.505356 150.983521,129.337936
M105.999916,122.500000
	C105.999893,137.156006 106.139030,151.814087 105.922333,166.466888
	C105.849113,171.417603 105.376778,176.478531 104.197990,181.270447
	C102.277443,189.077667 97.488548,192.756683 89.473572,192.947311
	C84.869537,193.056808 80.246307,192.359482 75.185799,191.993057
	C74.346481,198.325241 73.482346,204.844696 72.585854,211.608215
	C82.112251,214.361588 91.258949,214.659302 100.577682,213.210373
	C115.346573,210.914001 124.639236,202.545303 128.163193,188.140594
	C129.494125,182.700165 130.301407,176.993484 130.346603,171.400101
	C130.565979,144.254974 130.445663,117.107109 130.445663,89.960213
	C130.445663,88.162773 130.445663,86.365326 130.445663,84.308502
	C122.105064,84.308502 114.226181,84.308502 105.999916,84.308502
	C105.999916,96.909325 105.999916,109.204666 105.999916,122.500000
z"/>
<path fill="#3A3632" opacity="1.000000" stroke="none"
	d="
M150.899399,128.943008
	C145.941666,110.505356 154.339294,92.933243 171.511505,86.027184
	C187.966537,79.409538 204.293015,80.856865 220.918320,87.436745
	C219.187561,94.415131 217.561600,100.970970 216.053070,107.053383
	C209.056870,105.533257 202.530746,103.511185 195.872849,102.880547
	C191.417343,102.458519 186.435333,103.174377 182.284439,104.853325
	C172.900055,108.649101 171.065689,120.324371 178.774719,126.894859
	C182.752274,130.284973 187.594101,132.784332 192.311874,135.156113
	C201.246384,139.647781 210.374405,143.793640 217.121124,151.524399
	C235.086761,172.110443 224.463684,204.422897 197.170715,211.782043
	C181.739853,215.942734 166.504608,214.506653 151.576416,208.962219
	C148.567139,207.844543 147.482361,206.472717 148.558029,203.023254
	C150.220657,197.691513 151.158951,192.133896 152.509995,186.209137
	C162.183594,191.114822 171.871307,193.951263 182.230164,193.040512
	C185.948044,192.713654 189.893005,191.919266 193.171967,190.240128
	C201.930557,185.754898 203.928268,173.881714 196.695282,166.996017
	C192.351547,162.860825 186.552689,160.244934 181.377350,156.994720
	C174.513962,152.684372 167.016937,149.123383 160.945129,143.900116
	C156.637024,140.194061 154.235855,134.271286 150.899399,128.943008
z"/>
<path fill="#3A3532" opacity="1.000000" stroke="none"
	d="
M105.999916,122.000000
	C105.999916,109.204666 105.999916,96.909325 105.999916,84.308502
	C114.226181,84.308502 122.105064,84.308502 130.445663,84.308502
	C130.445663,86.365326 130.445663,88.162773 130.445663,89.960213
	C130.445663,117.107109 130.565979,144.254974 130.346603,171.400101
	C130.301407,176.993484 129.494125,182.700165 128.163193,188.140594
	C124.639236,202.545303 115.346573,210.914001 100.577682,213.210373
	C91.258949,214.659302 82.112251,214.361588 72.585854,211.608215
	C73.482346,204.844696 74.346481,198.325241 75.185799,191.993057
	C80.246307,192.359482 84.869537,193.056808 89.473572,192.947311
	C97.488548,192.756683 102.277443,189.077667 104.197990,181.270447
	C105.376778,176.478531 105.849113,171.417603 105.922333,166.466888
	C106.139030,151.814087 105.999893,137.156006 105.999916,122.000000
z"/>
</svg>
