<svg xmlns="http://www.w3.org/2000/svg" width="382" height="392" stroke="#000" stroke-linecap="round" stroke-linejoin="round" fill="#fff" fill-rule="evenodd">
    <ellipse cx="189.9764" cy="194.7008" rx="5cm" ry="5.125cm" fill="#262626"/>
    <path d="M176.8806 40.5615c7.0229-4.3451 16.1696-4.3647 23.1856 0l105.9023 64.6603c6.6386 4.0417 11.079 12.0268 11.011 20.2947v129.7151c.0498 8.6103-4.8297 16.7874-11.8329 20.738l-105.5249 64.3498c-7.1675 4.43-16.4983 4.0888-23.4421-.7044l-31.6626-19.7894c-2.1564-1.3892-4.5856-2.4948-6.1079-4.7546 1.3455-1.9595 3.7514-2.2047 5.7058-3.0604 4.4036-1.5131 8.4474-3.9422 12.4917-6.2998 1.0232-.7568 2.272-.4666 3.2527.2106l27.0096 16.8798c1.9305 1.2041 3.8853-.3947 5.5355-1.3894l103.6126-63.2046c1.279-.6648 1.9859-2.1325 1.8824-3.6472l.0112-128.3782c.147-1.7183-.7728-3.2985-2.2104-4.0012L190.5417 58.1123c-1.2436-.9234-2.8839-.9261-4.1299-.0062L81.265 122.1994c-1.4324.7047-2.3936 2.2577-2.2229 3.9824v128.385c-.1255 1.5129.6357 2.9506 1.906 3.6012l28.0821 17.1428c5.2732 3.0679 11.748 4.8906 17.558 2.5397 5.1272-1.9875 8.7208-7.6427 8.6236-13.5278l.0359-127.6211c-.1274-1.8881 1.5294-3.4486 3.2281-3.2714l13.49.013c1.8764-.0457 3.1676 1.9887 2.9357 3.8905l-.0306 128.4308c.0117 11.4093-4.324 23.8234-14.0871 29.4058-12.0276 6.7357-26.8932 5.3073-38.7761-1.1505-10.2871-5.5502-20.1033-12.0994-30.2075-18.0458-7.0215-3.9285-11.8764-12.1378-11.8268-20.7408V125.5165c-.0738-8.4389 4.5432-16.5693 11.388-20.5524l105.5192-64.4026zm30.6887 89.8547c15.3419-1.0678 31.7662-.6334 45.5721 7.5374 10.6896 6.2609 16.6156 19.4002 16.8043 32.2374-.2987 1.7306-1.9735 2.6854-3.502 2.5673-4.4514-.0066-8.9039.0656-13.3551-.0325-1.8888.0777-2.9861-1.8038-3.2232-3.6088-1.279-6.1411-4.3776-12.224-9.7256-15.1875-8.2095-4.4421-17.7283-4.2191-26.6812-4.126-6.5348.3748-13.5624.9866-19.0991 5.1405-4.2503 3.1469-5.5417 9.4987-4.0243 14.6152 1.4294 3.6726 5.3524 4.8586 8.5626 5.9505 18.4886 5.2277 38.0815 4.707 56.2176 11.5864 7.5096 2.8042 14.8546 8.2557 17.4245 16.7531 3.3618 11.3902 1.8881 25.0044-5.6081 34.148-6.0798 7.5244-14.9335 11.6194-23.765 13.844-11.7482 2.8323-23.94 2.9033-35.871 1.6457-11.2185-1.3811-22.893-4.5684-31.5539-12.8307-7.4057-6.9507-11.0228-17.7806-10.6635-28.2342.0856-1.7648 1.7114-2.996 3.2761-2.8512l13.4475.0067c1.7906-.1387 3.1176 1.5343 3.2096 3.3583.8275 5.8516 2.862 11.9945 7.5826 15.4631 9.1106 6.3527 20.5421 5.9184 30.9734 6.0959 8.6427-.4146 18.3446-.5395 25.3974-6.7142 3.7208-3.5217 4.8234-9.4138 3.8176-14.4828-1.0896-4.2799-5.2314-6.2739-8.7878-7.5778-18.252-6.2408-38.0635-3.9768-56.1392-11.034-7.3382-2.8032-14.4348-8.1036-17.254-16.253-3.9338-11.5334-2.1315-25.7995 6.1512-34.6342 8.0752-8.7882 19.7326-12.1719 30.8165-13.3842z" fill="#8cc84b" stroke="none"/>
</svg>